<mxfile host="app.diagrams.net" modified="2023-07-06T08:53:26.457Z" agent="Mozilla/5.0 (Windows NT 10.0; Win64; x64) AppleWebKit/537.36 (KHTML, like Gecko) Chrome/114.0.0.0 Safari/537.36" etag="9y6o6MMpxeY4FrIGG1me" version="21.6.1" type="device">
  <diagram name="Page-1" id="nyLckplTZKcOaqB6XmpH">
    <mxGraphModel dx="1692" dy="408" grid="1" gridSize="10" guides="1" tooltips="1" connect="1" arrows="1" fold="1" page="1" pageScale="1" pageWidth="850" pageHeight="1100" math="1" shadow="0">
      <root>
        <mxCell id="0" />
        <mxCell id="1" parent="0" />
        <mxCell id="3oxsGS8sbeUWXzwYM7qS-1" value="" style="shape=image;verticalLabelPosition=bottom;labelBackgroundColor=default;verticalAlign=top;aspect=fixed;imageAspect=0;image=data:image/png,iVBORw0KGgoAAAANSUhEUgAABMMAAAFmCAYAAABgAF3BAAAAAXNSR0IArs4c6QAAAARnQU1BAACxjwv8YQUAAAAJcEhZcwAAEnQAABJ0Ad5mH3gAAJCgSURBVHhe7d0JnM3V/8fxo4SyJHu02CtSIdkKSSIVpUWrFqF9p31ftVGERKVFGxUSWSOULClabJE1yZKdcv/en9+58580y52Zu9/X8/G4Zu7n3hkz937n3vP9nM/5nHyBvRwAAAAAAACQAvbzHwEAAAAAAICkRzIMAAAAAAAAKYNkGAAAAAAAAFIGyTAAAAAAAACkDJJhAAAAAAAASBkkwwAAAAAAAJAySIYBAAAAAAAgZZAMAwAAAAAAQMogGQYAAAAAAICUQTIMAAAAAAAAKYNkGAAAAAAAAFIGyTAAAAAAAACkDJJhAAAAAAAASBkkwwAAAAAAAJAySIYBAAAAAAAgZZAMAwAAAAAAQMogGQYAAAAAAICUQTIMAAAAAAAAKYNkGAAAAAAAAFIGyTAAAAAAAACkDJJhAAAAAAAASBkkwwAAAAAAAJAySIYBAAAAAAAgZZAMAwAAAAAAQMogGQYAAAAAAICUQTIMAAAAAAAAKYNkGAAAAAAAAFIGyTAAAAAAAACkjJgnw3744Qf/GQAAAHKCcRQAAEDOxTQZ9uOPP7rXXnvNXwMAAECoGEcBAADkTkyTYZ9//rldAAAAkDOMowAAAHInX2Av/3nUVa5c2f36669u4cKFrmrVqj4KAACA7DCOAgAAyJ2YVYZt3brV/fbbb/Y5s5oAAAChYxwFAACQezFLho0fP979888/9jmDOAAAgNAxjgIAAMi9mCXDRo0a5fLly2efT5gwwW3bts0+BwAAQNYYRwEAAOReTJNhwXZlO3fudJMnT7bPAQAAkDXGUQAAALkXk2SYtgJfvny5v+ZsZpMSfwAAgOwxjgIAAMibmCTDMhqwjRw50n8GAACAzDCOAgAAyJuYJMNU2r///vv7a87K/JcsWeIWLVrkIwAAAMgI4ygAAIC8iXoyTFuBT5kyJW0HpPQo8QcAAMgc4ygAAIC8i3oybNy4cW737t3+2v/TDCeDOAAAgMwxjgIAAMi7qCfDNFALbgWenmY42RocAAAgc4yjAAAA8i7qyTD1ucgMW4MDAABkjnEUAABA3kU1GRbcClyNXjPC1uAAAAAZYxwFAAAQHlFNhoUyQGNrcAAAgP9iHAUAABAeUU2G7bsV+L49L9gaHAAAIGOMowAAAMIjasmwLVu2/Gsr8P32288uGtTtO5ijxB8AAOD/MY4CAAAIn6glw8aPH5+2FXhw8Hbeeee5YsWKuRNPPDFtIKc4gzgAAID/xzgKAAAgfKKWDBs9erR91GBNA7VPP/3UVatWza5/8cUXrm7duvZ5cGvw7du32/0BAABSHeMoAACA8IlaMuyzzz6zj/nz53dDhw51rVu3tutSvHhxN27cOJvZFG0N/uWXX9rnAAAAqY5xFAAAQPhEJRkW3Ar8gAMOsJnMs88+29/y/w4++GCb2QwO5CjxBwAAYBwFAAAQblFJhmlAVrBgQRvApZ/J3JdmNseOHWsDOQZxAAAAjKMAAADCLSrJMPWu+PDDD7McwAUFS/1LlCjB1uAAACDlMY4CAAAIr4gnw3bt2uXuuOOODEv6M6NSfzWK/eOPP3wEAAAg9TCOAgAACL+IJ8MKFCjgmjdv7q+FTjObDRs29NcAAABSD+MoAACA8IvKMkkAAAAAAAAgHpAMAwAAAAAAQMogGQYAAAAAAICUQTIMAAAAAAAAKYNkGAAAAAAAAFIGyTAAAAAAAACkDJJhAAAAAAAASBkkwwAAAAAAAJAySIYBAAAAAAAgZZAMAwAAAAAAQMogGQYAAAAAAICUQTIMAAAAAAAAKYNkGAAAAAAAAFIGyTAAAAAAAACkDJJhAAAAAAAASBkkwwAAAAAAAJAySIYBAAAAAAAgZZAMAwAAAAAAQMogGQYAAAAAAICUQTIMAAAAAAAAKYNkGAAAAAAAAFIGyTAAAAAAAACkDJJhQDZ27NjhXnnlFXf66ae7ww8/3JUrV87Vq1fPPfDAA27NmjX+XogHW7ZscS+88IJr2rSpq1Chgitfvrxr2LChe+KJJ9yff/7p75W8Ro0a5Tp06OCqVq3qSpYs6WrUqOE6d+7sZs6c6e8RO5s2bXLPPvusO+WUU9Kem8aNG7tnnnnGbdy40d8rdL/99pu7++67XZ06dVzZsmXdEUcc4Vq3bu0GDhzodu3a5e+VezNmzHCdOnVyxxxzjD2W1apVc5dccokbM2aMv0f07N69273++uvuzDPPtN9Tv2/t2rVdt27d3LJly/y9cm/9+vXuySefdI0aNbLnRc9PkyZN3HPPPec2b97s7wUAAAAkkUAM3XvvvYESJUr4a0D8mTNnTqBy5coB/alkdClcuHDg7bff9vdGLE2ZMiWw90Q+w+dJl0MOOSQwfPhwf+/ksn79+sCZZ56Z4e+tS758+QI33nhjYNeuXf4romv8+PGBMmXKZPiz6VKqVKnAmDFj/L2z169fv0DBggUz/F661KhRI/DTTz/5e+eMHqOuXbtm+H2Dl3POOSewceNG/xWRtWDBgsCxxx6b4c+hix6H3r17+3vn3KhRo+x9OKPvrUu5cuUCkyZN8vdGvGEcBQAAkDtUhgGZWLhwoWvRooVbsmSJj/zX1q1b3eWXX+4+/PBDH0EszJ4927Vq1cqtWrXKR/5rw4YNrn379m7s2LE+khxUBXX22WdbVVhm9r7Wu969e7vrrrvOR6Jn+vTprk2bNm7t2rU+8l/r1q1z55xzjpsyZYqPZG7AgAGua9eubufOnT7yXz/++KNr3ry5W7FihY+ETtVg/fr189cyNnz4cPt5//77bx+JDB3P+j3mzZvnI/+lx+HGG290ffv29ZHQTZw40bVr184qwzKj6ldVpH377bc+AgAAACQ+kmFAJnSCGcrSOiUarr/+elsGhtjQUkAlJrOj5WbXXnttlomURNOnTx83depUfy1rWkI4fvx4fy3y9uzZY8klLTXOjp4T3feff/7xkf9SYub222/317K2evVqd8cdd/hroRk9erQbPHiwv5a1yZMnZ5s0yystgww1oXfnnXe6lStX+mvZC/4thLKkdNu2bXZfvdYBQDxRMl+TE+PGjfMRAABCQzIMyMDSpUtzVEGkypZhw4b5a4imWbNm2SVU6rH0xRdf+GuJT5VSOZHT++eFknSq0grVggUL3KRJk/y1/3rvvfesL1yo9DeZk15x8fRYqo9aTipOlbB69913/bXsKSm6ePFify17c+fOdd98842/BgDxQZMumvzYvn27jwAAEBqSYUAGvvvuuxxXQehrEH1z5szxn4UuN18Tj1Rx9fPPP/troYnm7x7u5yan30/LGH/44Qd/LXs5/f5avhiOZv0ZmT9/fo6/d05+/nA/NwAQC6VKlbJl3GoXAMQDrRRRi4isKt0BxAeSYUAGcrMciDe92MjNc6WZ5GSg3yOnv380j9NwPze5ed5y8vvm9Pvr98vN7xiK3HzfnPyukf7+ABANWiapnqHJVPGNxKbVImq7EOm+ogDyjmQYkIGaNWv6z0J37LHH+s8QTan8XB100EGuUqVK/lpoovm7h/u5yen322+//XL0NTn9/tWqVXMFCxb018LrqKOOcvvvv7+/FpqcPLe5eW5q1arlPwOA+KBJjM2bN1sfRCAWdAx+/vnn1vdU78PHH3+8GzlypCtfvryrX7++9f+kshqITyTDgAxUr17dNWrUyF/LXtGiRW2nQkRfgwYNLHEQqjJlyrjWrVv7a4nvyiuv9J+FJqf3z4tmzZq5ihUr+mvZO+yww2wH18xcfPHFOUo+qVqgXLly/lr24umxLF26tO3CGaoCBQq4Sy65xF/L3hlnnOEOPfRQfy17VatWdSeffLK/BgDxQcsk1Z8yJ6+XQLgo6aWJIu26rJ6njRs3dh06dLBdzrW5lt47Bw0a5OrUqeNatmyZo9YNACKPZBiQid69e1vlTSh69OhhJ6+IPlX/aFe/Aw44wEcyly9fPnteCxcu7COJT7sIhlrl065dO7tES/78+V3fvn1DqnDS86j7KqmTmSOPPNI99NBD/lrWihcv7l588UV/LTTnn3++DWhDoZnf2267zV+LjOeff96VKFHCX8va/fff76pUqeKvZa9QoUK2E6ke9+zoedTfWE4r1QAg0rRJSvPmzW1ZGhAt2sxHE1DqVVe2bFn35ZdfukWLFrn+/fu7nj17WtLrkUcece+8847thK2P2pyrbt267sknn4xYiwUAOUMyDMhE7dq13YgRI2zWMTM6SXz22Wdd165dfQSxoAqkDz74wBUrVsxH/ksn/6+++qq74IILfCQ5KGE7ZswYV69ePR/J2HnnnWeDsWhTdZb+36wSkPod3nzzTXfWWWf5SObuuece9+CDD2aZxKlQoYIbNWqUVXjmhJKl77//vm3TnxVVI2pJhI6pSNKMsk7wVDGXGf3M9957ryXDcurcc8+1Geusfg9VvQ4ZMsSddtppPgIAQOr6/fffXcOGDe0cQWOXCRMmuCZNmvhb/3f70KFD05bu6lxBibPvv//e3X777fZ+feGFF7K0F4gHgRjaO4APlChRwl8D4tMff/wR2PvGFahRo0Zg7xuapnICe09OA1dffXVg/vz5/l6IBytXrgzccccdgWrVqgX2228/e64qVqwYuO666wKLFy/290pOu3btCgwYMCCwd0AWKFSokP3uxYoVC7Rp0yawd8Dm7xU7y5YtC9xyyy2BKlWq2HOTL1++QOXKlQM33XRTYOnSpf5eoZs1a1bgsssuC5QrV85+1wMOOCBw3HHHBR599NHAxo0b/b1yZ8+ePYFPPvkk0Lp1a3sM9f0PPPDAQNOmTQODBg0K7B3A+ntGh36fxx9/PHD88cfb76mfR7/3pZdeGpg5c6a/V+4tWbIkcMMNNwQqVapkz4ueH/0N7R20B1asWOHvhXjEOAoAomf16tV2PnDooYcG5s2b56P/9tVXXwWOPvrowObNm33k3z766KNAgQIFAueee66N3QDETj79s3dgHRP33XefLb1QiXNmtm/fbqWkWgIVXAYVamzbtm32UctulJWXUGL6Pvp+ov40WhqSm5hm21W9oMaKO3bsyFFs74mXzfhr966dO3fmKBZc2qddTIJb8+c0ptkKXfS99X/kJKbvpe+p3ylYcRBqTL+Dfhc9lsHeQDmN6TkMLrXS46nHNdRYdsfU1q1b7fdVlUtW94vFsZfdMZVVLP3xE+pxllEst8dedsdUqLH0x5SeC/2ueqz2Pc7CfexldUyFGkt//GR0TGUVy+iY0vcsUqSIfZ7VsZfVMRVqTP/XvsdUVjE99orp58numMoqFjx+FNeyyPQxCdexp+bMur7v/bI7pkKNZXRMZRXT1werILM6prKLZXRM6XcV/WxZHXsZHVOIvlDGUUAy0859bdu2tQpZ+oYhklTxdeqpp7qNGze6iRMn5qhf7b4+/fRTqw5TawatbAi+twKIsr0D3JgJZUazdOnSNguu6oGgokWLWuyuu+7ykUDabPkDDzxg1/eeMNh1XZ544gmLbd26NS32/PPPW2zvADIt1qdPH4upuiQYGzhwoMVUVRKMvfPOOxZTVVAwNmzYMItplj4YGzVqlMU0QxCMTZgwwWLjxo1Li02bNs1iI0eOTIvNnj3bYpo9CMZ+/PFHi7399ttpMc3oy2uvvZYWW7VqlcV69+6dFlu/fr3FnnvuubTY3pMZi6niIBjbe7JkMVVC6freEx27LnfeeafFVCkRdOONN1qsTJkyPhIIdOrUyWJHHHGEjwSsgkOx6tWr+0ggcP7551tM1RxBqmJRrH79+j4SCJx22mkWU1VGUOPGjS12xhln+EggULduXYvtHRT5SCBQs2ZNi1100UU+ErDKFMU6duzoI4FAhQoVLNalSxcfCQRKlixpMVWzBBUuXNhi3bt395FAYO/JqsUeeughu773JNmu6/LUU09ZTLNDwdiLL75oMVWcBWN9+/a12PLly9Nir7/+usUWLlyYFhsyZIjFfvjhh7TYxx9/bLFvv/02LTZ69GiLTZ48OS02adIki33xxRdpsa+//tpiw4cPT4t99913Ftv75pwW+/nnny02ePDgtFiwmufVV19Ni61Zs8ZiL730UlosWKXTo0ePtNjeE3OLqYonGAvS64Ku7z0Z95GAVagoVrx4cR8JBK6//nqLqUImSNV6iqkaLOiSSy6xmGbpgs477zyLnXDCCT4SCOwdkFisQYMGPhII7B30WEwfgxo2bGgxVQ0F1a5d22Ka5Qs65phjLHbxxRf7SMAqbxS76qqrfCRgs4uKqXot6JBDDrHYbbfd5iMBq0xS7J577vGRgFXxKPbII4/Y9Z07d9p1XZ555hmLbdq0KS3Wq1cvi+0d0KXF+vfvbzFVbgVjb775psV++eWXtNj7779vsblz56bF9g7mLPbNN9+kxcaMGWMxHW/BmI5D0XEZjM2YMcNiqsAKxr7//nuLvffee2mxBQsWWOyNN95Ii/32228W69evX1ps7dq1FuvZs2da7K+//rLY008/nRbb5WdhH374Ybu+33772XW5++67LXbQQQf5SCBw6623Wiz9e1XXrl0tVr58eR8JBK688kqLqdotqEOHDhbTLHJQu3btLFanTh0fCQRatWplsUaNGvlIINCsWTOL6fUvSK+Liul1MkjVYoq1b9/eRwKBvQN0i6lyLOjII4+02DXXXOMjgUDZsmUtpqqwoIMPPthiqrAMKliwoMXuu+8+HwnYdV0ee+wxH0EsUBmGVKdxvMaCwfceIBI0dtC5h8acwTFxZqZOnRo49thjM60MC9IYSuevGmcAiA16hgEAgH9RFdqyZcvc3LlzraJMfvrpJzdw4EDrvRc0duxYd/fdd7suXbq4X375xUcBIDpKlChhvRW1Ux8QKXfddZf75ptvrIoru4ow7VqunpzZVXupP+nTTz9tDff1fQFE3/4P7+U/jzo1HJw5c6br3r27j/yXmvdqlxiVpVaqVMliWh6iZr6KaXexYOz000+32OGHH27LXBTT9vFqrq2GyoppKU0wpm3lFdMbqWJNmza1bfi1fKVkyZJpMb2oKabdAhVTk0Q1VdfyFe0gEozp+2i5iL5vMKb/TzH9/8GYfi69QKopsmKnnHKK/Z6KHXHEEWkxLcXTEpSKFStaTNvaa5mOYpUrV06LaQmNYmq2rJi29dV1xatVq5YW08+hmF7EFWvUqFHaUp1jjjkmLSaKaYc6Nb+uX7++xfR/H3vssXa/k046KS123HHHWezEE09Mi51wwgk2MNFWwqKlScFthXVbMKav0fOmndmCMX3vFi1a2FbFosdBP4NiwV3zFFPzSsX0s4uWhOn31LERfKNSTI+lYnosRI+1ngcdV3rMgjEdE4rpsQ3GgseengPRc6f/UzE9V8GYfi99fU6OPT326Y89HUuK6dgKxnTMKaZjULGsjj3Fsjr29DgEjz39nMGYHiPF9LcUjOl5CPXY0yX9safvpZialwdjwaVeRx99tMX2PfZ0nOn5lMyOPR0P+tpgo3jFdNwopt15RD93To89Hb+iY0rHnmI6zoMxNUvXc16jRo20mH5+HVO5Ofb0vOq4Cu78p5iOJ8XSv8bl9NjT64mOs4MPPtgeE8XKly9vsUMOOSQtFnyNC+XY0/OW/tjT66Ji+h7BmL63Yvq/FNPvHDz20r/GhXLs6ZgKHnt6LIIxHROK6TELxoKvcaEce/r69MeeHhPF9JzqONNzLIoFX+Nyc+xp0w09H/oYjOl2xYKvcTp+wnHs6fcRPYZ6PBQLbhigmJ4bHUM69rSkUcsr9X303CmppQ0GtBuWnpeVK1dagku74v7111+2DHPGjBk2QNcSvPTJsOHDh9tW8kFKmE2dOtXNmjXLBvY52dESeRfKOApIZlomqfcsjX+yS1IAuaFElXbu1g7PF110kY9mTuMQjWs0ftJ4Iyt6n58/f7574YUXbLdvdqYHoivue4YBAICM6URQCangRVu3L1++3K1du9b6m6xevdp6HYaTkoFKHCrZp0G/knRKTvbq1csSkIgexlFIdevXr3dXXnmlu/nmm23yAAin3377zSapNHGm3aazS26JdvjW/dVbTBOU2dEklCbJ9J767bff2sQegOggGQYAQJz6448/3OLFi/+V8AomvXTJTaJLCSzNPquSQlWBquTL6qLqP30MJsAQPxhHAUDkqOJZ1beqjA4lsSWquv71119tlYOq7kOhamytkHjyySep9AWiiGQYAAAxpJ0plfDSYHvBggXWe0uf6+OGDRv8vbKn5ZFamhFcnhFMdulzLWPVR13XElkkB8ZRSHWaMFBF2COPPGLLzIBw+eijj9wFF1xgFWHa+TFUS5Ysce+8847r1q2bTT6F6qabbnLqyzlv3ry0li0AIotkGAAAUaD3up9//tkuSnQFk16aQVafruwoiRVMdumifnLpr6unG1IL4yikOk0YXHvtte6GG26wnppAOGjpovpsqmfo559/7qOhUR/Na665xirKNEkVKv2fqibTRZtCAIg8kmEAAISZElzfffedmzNnTtrHFStW+FszpyWJaoSvzRnUDFoXNcFXskubLQDpMY4CgPC75ZZb3GuvvWbN7YMbGUXDsGHDXPv27a1pv6rSAEQWyTAAAHJJuzSq0uvHH3+0QbN2VdT261q6kxUtYdTsr5ZCaPY5+Ll20QylQS8gjKOQ6vRaq92J1WvpvPPO81Eg99S2QBNSDzzwgF1yatq0aa5r1672MSeVYUFqvq+fQeMKmukDkUUyDACAECjxpYSXBriq9NLlhx9+cDt27PD3+C/16apdu7Y74YQTXJ06dWyArcqvnPQRATLDOAqpTjv2aYlk586dXdOmTX0UyL1LLrnEjR8/3i1atChXFdn6ujfffNPdf//9uXqv//77723c0Lt3b3fdddf5KIBIIBkGAEAGtFOjEl7q//HVV19ZEkzb+GdG1V5169ZNuwSrvYBIYRwFAOETTES99NJLlmTNjW3btrnly5dbi4NQd5Pc18UXX+y+/PJLt3DhQle4cGEfBRBuJMMAANhLg9dg0ksJMA2KVQ22r/z589vSxmDFV/BjqNuuA+HCOAqpbu3ata5BgwauR48e7vzzz/dRIHfOPPPMtI1uChQo4KM5M2bMGFvqqKrF3I4L1Hf06KOPdg899JC79957fRRAuJEMAwCknGCvr2DVlz5qO/SMaJlE/fr1XePGja3iS/1pihcv7m8FYodxFFKdEg633Xab7d538skn+yiQc1OmTHFNmjRxb7/9trv00kt9NOe2bNli44ljjz0215Vhcv3117shQ4bY99LmOgDCj2QYACAlaEA5bty4tIu25M+IljvqpErJL31U5VdeBrRApDCOAoDwaN26tfvtt9+sF2he3vM11nj33XfdXXfdlaf+oKtWrbJWC2rir9d6AOHH6B4AkJS0zEBbo6sZbrly5VyVKlVcly5d3IcffpiWCNMyCC2xuf32221L89WrV9sA9IMPPrCt1VUJRiIMAOLT77//7g477DD3/vvv+wiQc2qLoOWN3bt3z/N7vsYQb731ltu9e7eP5E758uXd5Zdfbv3Ltm/f7qMAwokRPgAgKWhXRw1mb731VnfUUUfZjOq1115rywx0wiRKfmmZ48MPP+wmT55sS2ymT5/unn/+eXfuueda0gwAkBgKFSrk2rRp4w4//HAfAXLu6aefdhUqVHAdOnTwkdxTRfkvv/ziihQp4iO5d/fdd1vl7+uvv+4jAMKJZZIAgISl6q+xY8fassfRo0e7zZs3+1v+n5JiLVq0sEvLli1pdI+kwTgKAPJG44jq1avbJgzqP5dXmmDr2rWr9SINR0JMG0PMnj3bLViwwDbwARA+VIYBABKGGt9rgNmtWzfbaUmJruDSx2AiTNVdV155pS2bWbdunVu8eLHr37+/u+CCC0iEAUASUdVvmTJlrAIYyA1VhmujnE6dOvlI3pQuXdqdffbZ7oADDvCRvNHSTSXsPvroIx8BEC4kwwAAcU29MlT5pR5eWgqjJQjPPvusLUOQ/fff33p7acCo3aBWrlxpSwouvPBCV7JkSbsPACD5HHjggba0TRMjQE5pwkzjBe3cqIRYOKjX1xVXXBG2ZFi9evXcqaeeapVrAMKLZBgAIO6ol9ebb77p2rZtawmt008/3ZrIqsG9aJtxbX2u6q8//vjDzZw503p+KFFGw3sASA3FihWz94b69ev7CBC6gQMHur///tvddNNNPpJ3mpRT39KM2jbk1p133unmzJnjvvrqKx8BEA6cMQAA4sK2bdtsuaOWFwSXOg4fPjxtF6UjjzzSde7c2WJr1qxxb7/9tlV/KTEGAEg9ei/Q8ne9HwA5sWfPnrQWCmXLlvXRvGvUqJH77rvvwlZpJq1bt3bVqlVzffr08REA4UAyDAAQM3/99ZedxJxzzjmuRIkSltwaOXKk27lzp92u5Y+PPfaYmzt3rlu6dKkNXJUs066QAIDUdtBBB9muwarEAXJCYw314rrhhht8JDxUra7vvXv3bh/Ju3z58tlxPnToULdq1SofBZBXJMMAAFG1a9cu9+mnn6bNxl5++eVuxIgRaQmwOnXquKeeesotWrTIlj/ef//97rjjjrPbAAAI0jLJ5557zvoqATmhKqsTTjjBNWzY0EfCQ8kqtXkIZzJM1OBffci0tBNAeJAMAwBExaxZs9Ka4Ldr1852RtqxY4fdVqNGDffQQw+5n3/+2e539913uypVqthtAABkRH0k1UR/8ODBPgJkT5Nt2pjnxhtv9JHwUe/SBQsWuCJFivhIeKglhKrn+/XrF/ZEG5CqSIYBACJm4cKFluSqWrWqO/HEE63R8dq1a+226tWru0ceecQGjfPnz3cPP/wwS10AACFTwuG2225zNWvW9BEge6oKU1WhdiINt+nTp1vF2ZYtW3wkfNToX5VnqqYHkHckwwAAYaXljmqErx0gldx69NFH3eLFi+02zWyqCb52W1IV2IMPPmhNYQEAyCk1KX/yySetvyQQCm3W88Ybb7irr77aFS5c2EfDp3Tp0q5Nmza2pDHc1EZCS4JfeeUVHwGQFyTDAABh8eOPP9ryxgoVKlgpv5YgBAIBV6hQIXfWWWe5Dz74wHb+UhN8LSNQQ1gAAHJLyyT3339/S24AoVAT+k2bNrkuXbr4SHiVL1/edsOORDJM9HNPmDDBmv8DyBuSYQCAXNNukEpuaaZSy1SeeeYZ9+eff9ptmqnv27evJcBU0q+G+ewCCQAIh3/++cdt3brVXXfdda5cuXJpPSiBrAwaNMg1btzYWjVEgirf9b03b97sI+F10UUXWUUbCWAg70iGAQByTH2+VAV25JFHuq5du9quj6IeHFoGqSb4ium2gw8+2G4DACC3li9f7l577TWrPFb1Tf78+W2Z/Zw5c1zr1q2tkb7eb0477TSbmPnuu++sOhkIWrp0qZs8ebK76qqrfCT8GjVqZMeklvBGgvrktW/f3pJ6SggDyD2SYQCAkOzZs8eWPp599tnu6KOPtpONjRs32m2qAlOFmBq76qP6WgAAkFdqSK73HU2+aLJFkzGXXHKJ69WrlzVCnzZtmrvhhhusElnN9EUbt9SuXdsdd9xx7t133yVpAPP6669b0lSV6pGybt06N2rUqIju+Khk3ooVK9zEiRN9BEBukAwDAGRJuz+qQXHFihWtKf7IkSNttl1VYNqW/KeffrIqMJ2kRKIZLQAg9ai6pnnz5lZpox2He/fubRMuqvh67rnn3M033+yuuOIKe3/S+48qkbUr8fjx4225/scff+xKlCjhLr30UpvAef/99/13RirShN6bb75pibBIVW3JypUrLekWyWRYkyZNbJdu/T8Aco9kGAAgQzr50G5LRxxxhLvvvvtsiYocc8wxNhuvWcmXX37ZTjIAAAgHVXEpwdWgQQN7n3nrrbesGuz666+33mDpaQLmlltusZ6V6Snerl079+WXX9qyOFWVdejQwfotBftaIrUoSbps2bKILpEUbRC0cOFCW84YKdqAqGPHjm7YsGFuw4YNPgogp0iGAQD+5auvvrIlKbVq1bJZx507d7r99tvPtWjRwg0fPtySZDopieTMKgAg9WiHvFNOOcXdf//9Vuk1d+5cd9lll1l/sIxoN0klvlTxkxl9Py3xHzBggPv888/tve2LL77wtyJVaDxTqVIlOx4iSct6tUR3y5YtPhIZSuqp+oyKRyD3SIYBANzff/9tA6oTTzzRBorBpZBqRtytWzc7QRk7dqwlyTQjCQBAOGnjlYYNG1oVst5v1BNM/Z2yovcoLZk86aSTfCRznTp1suSalpe1adPGmvEjNai/6SeffOKuueaaiI9hSpUqZRs6HHDAAT4SGRUqVLBJSpZKArlHMgwAUti2bdvcSy+9ZNuAawmJTkZESyOff/55OylRo3xdBwAgErSETf3BSpcubZU12hEyFAcddJAlOPQeFgpVBk2YMMFdeeWV7tprr7VdkZH8hg4dalXul19+uY9EzmGHHWYtJiKdDBMtlZwxY4YtIwaQcyTDACAFbd261WbdNUOufiuq/JLjjz/elpssWrTI3X777SyFBABE1JAhQ6ySRrsSa5m+kgmh0jLJQw45xL399ts+kj0tuXz11Vdd9+7dbbJHy/5VCY3k9c4771gvr2hM7KlHXbVq1dzmzZt9JHLatm1rvcm0YyqAnCMZBgAp5K+//nJPPPGENRO+9dZb7URCWrZsaT1UtEuXdueKxowmACC1jRo1yqpbtARf/by07DEndH9VN2t5ZU5oqdzTTz/tXnzxRde3b18qxJKYdiBVguqSSy7xkcjS7qezZ8+OymSiKiOVEFOyj4QukHMkwwAgBWiGUjPgWiKixsTB3bTUb+Kbb75xY8aMcaeffrrFAACINC3vuvDCC61iR5UtBQsW9LeETj3FtEOk3ttyQ5NCjzzyiOvRo4e1BkDyUeWhNgE6//zzfSSy1q1b50aPHm3N7aNBST5V88+cOdNHAISKZBgAJDE1jX3ggQfc4YcfbjPf69evt0Fh+/bt3Zw5c6xJcSiNhwEACJeFCxdaNdjRRx/tPv3001wlwmTNmjWubNmyeVom9uCDD1q7gLvuusu98cYbPopkoWNDy3BLlizpI5G1YsUKN3DgwKglw1TZX6ZMGZZKArlAMgwAktCuXbusJ8pRRx3lHn/8cbdp0yZLgp111lnu22+/dR999JE74YQT/L0BAIgOVSarEllLHLVMMi/LyYoXL+769+/vGjdu7CO588ILL1jlUOfOna1vGZLDzz//bEsWo7VEUrQjtyq11MsrGtQDT8fue++95/755x8fBRAKkmEAkET+/vtvS4JVrlzZdenSxa1du9aSYJdeeqmbP3++GzFihKtTp46/NwAA0bNnzx7b0U9Vy5999plVtORFoUKFrOonJ033M6L3ybfeess2kdGyy99//93fgkSmaqnChQvbRGC0aDdUjbO2bNniI5GnZJ+qJCdOnOgjAEJBMgwAkoAap3744YeuZs2algRbuXKlxdUTbNasWbbTlpajAAAQK4899pj1U9IyMu24l1dKAGiHwPfff99Hck9LNYcOHWqV1R06dLDJJSQ2VUupLYQSYtFSqlQpd8YZZ0R1IyI17VffPJZKAjlDMgwAEty4ceNcvXr1rBHxggULLKYy/alTp1pPMJZDAgBibfz48ZYMu/POOy1BEQ6HHHKIe/31112TJk18JG+UWFPD9SlTplgvMSQubQ6k3nQXX3yxj0SHqhQ7deoU1WSYdkfV7zls2DC3Y8cOHwWQHZJhAJCgNMhTAky9V1T9JaoM++CDD2wbcc0UAgAQa6tWrbJqK/X2evLJJ3007woUKGCTP2qiHy6qqL7nnnvc008/bT3NkJg0FipdurQ9n9Gk8VfVqlVtF+9o0t+X+sOq8hJAaEiGAUCC2bBhg7v99tst8aWlkaIeYe+88477/vvv3QUXXGAxAADigRrTazm/lq2p4Xe4qLeXEg/B98Jwefjhh63aTBU+2oUZiUXHmpa8nnvuuWE93kKhiUhNUOZlY4jcqFWrljvmmGPC/rcAJDOSYQCQINR4ePDgwdb768UXX7Rtu9UH46GHHrLm+GqgqibAAADEi0GDBlmz/D59+rhDDz3UR8NDyyQ1EdSsWTMfCY/999/fvfHGG9YE/aabbvJRJAotkVy2bFlMJgfXrVvnvvjiCxujRZt2ldRGSdu3b/cRAFnhrAkAEoB6rdSuXdt17NgxbYdI7cil7bs1g60dtQAAiCfazEU9wtq2bWu7NIab+jLpvbFkyZI+Ej4VK1Z0PXr0sKbkH330kY8iEag6So3sw50kDcWKFSvcgAEDYpIMU/JPyzOVjAOQPZJhABDH1GfliiuusJ4XWgIpGtypBF9VYuXKlbMYAADxREvVrr32Wquy6t+/v4+GlyaHatSoYUviIkG7M7dq1cpdd911tiQT8S+WSyRFPewWL17sihQp4iPRw1JJIGdIhgFAHNKW7r169bIlkW+99ZbFtMvVm2++6SZOnMgOkQCAuDZw4ED3+eefu759+4a1wX16JUqUsBP/5s2b+0h4aZc+JfJ27drFcskEMWPGjJgtkZSvv/7a1a1b15bYxoKWSg4fPpylkkAISIYBQJzRQOrEE090t956q5W7awnkI4884hYsWGBVYgAAxLM//vjDde/e3U7MdYkUVf5Uq1bNHXzwwT4SfpqIevbZZy3ppuQe4puWtGrZ7Kmnnuoj0aX/W7t8awlvLLBUEggdyTAAiBMbN250t9xyizv55JPd3LlzLaYlkXPmzHEPPvigK1iwoMUAAIhnSoSpZ1LPnj19JDK0TFKV0h9//LGPRIZ2lWzYsKFVh+3YscNHEY+GDRsWsyWScthhh9nuqQUKFPCR6GKpJBA6kmEAEAe0G5aWRL700kvun3/+sR23hgwZYksiFQcAIBFomZqW9Gun4woVKvhoZKgKR0vCVIkTSdq0pnfv3m7p0qVWJYb49O2337olS5bEbImkTJ482VWpUsX99ddfPhJ97du3t78LErdA1kiGAUAMqSHveeed5y677DL7PLhL5Lx581yHDh38vQAAiH+azFHTeU3i3HzzzT4aOXrPVD+yAw880Ecip06dOva7PfXUU5ZwQfzREkn1kYvVEklRBaGScrFooB/EUkkgNCTDACBG1BhfpezB5R3aHv6bb76xXSI1mAMAIJH06dPHfffdd1ZFFY2eSepNVr9+fauCiQYlwooXL+5uu+02H0E80XjqnHPOiVm/Lvnzzz/d+PHjLTEcK8cdd5z10tOSUQCZIxkGAFEWrAZTM/wNGzbYoE39VYKN8wEASDR6b1N/S1U6R6syR8skR48e7c444wwfiaxixYpZQkzJt5EjR/oo4sH8+fPdwoULXbt27XwkNlasWOH69evndu7c6SOx0bZtWztGtTs5gIyRDAOAKFJD05o1a6ZVg2n2Tkmwp59+OmbNVgEAyKuHH37YqmF69OjhI5GXL18+V7hw4ahWAmkiq0GDBu6uu+4i0RBHPv30U1suG+n+cdk55ZRT3K+//uqKFi3qI7GhZJiq1KZNm+YjAPZFMgwAokAz5irdv/DCC21wosTXo48+6mbOnGl9SAAASFQ///yze+2111y3bt1sA5hoWbdunSUfolmlpQTciy++6H755Rc3YMAAH0WsKRnWsmVLd9BBB/lIbASr/Ldu3eojsdGoUSPrp6fHBUDGSIYBQISNHTvW+oGNGDHCrqsabPr06e6BBx6IaV8LAADCQVVSZcqUcbfffruPREepUqXchAkT3Jlnnukj0aHKsHPPPdd2zIzlroH4n1WrVlnTelVDxZp6vjZv3tztv//+PhIb2lyiTZs2JMOALJAMA4AIUb+IW2+91XqZrF692uXPn9898sgjVIMBAJLGl19+aZVZqnbWksVoCwQCdom2Z5991m3atMk+IrY02aiKvWgnRTNy+OGHu+uuu84VLFjQR2JHycHFixdbPzUA/0UyDAAiQEtGtL12r169bJB+5JFHukmTJllzYarBAADJQO9vd955p+2M3LFjRx+NHi2TPO2009znn3/uI9FTuXJl16VLF/f888+75cuX+yhiQdVPwWWBsTZ58mQ7NuKhYlD905SgpjoMyBjJMAAIs8GDB1u/iDlz5tj1Cy64wD5v3LixXQcAIBkMGTLEqp1feOEFq36OttKlS7uvvvrKnXXWWT4SXZrgUg9QbR6A2NiyZYubOHFiXCyRFE2EzpgxwxUpUsRHYkcbCrRo0YJkGJAJkmEAECbr16937du3t9lxNU7VTkJKjH3wwQfukEMO8fcCACDx7dq1y91///12st2qVSsfja49e/ZYBc7u3bt9JLrUs+zuu+92b775pps3b56PIppGjx7tduzYYZsUxQONBZWc086q8UBJQvVTW7FihY8ACCIZBgBhoMovVYMNGzbMruvzWbNmucsvv9yuAwCQTAYNGuSWLl3qnnrqKR+JPu3OrD5RY8aM8ZHou+WWW2x5HtVhsaGqJy3TrV69uo/E1m+//eZeeeUV6xsbD5QkVDP9aO64CiQKkmEAkEcDBw60XhW//vqrNXDVLPG0adNctWrV/D0AAEgeqsR54oknrOpEkz+xomWSsd5FUEvR9L6vybBgewREh6qv1C8uXpZISpMmTSxJrNUB8aBkyZK2dJOlksB/kQwDgFzSrJ+a53bq1MlODIoVK+aGDh1qs+Q0yQcAJKv+/fu7lStXuoceeshHYkPJEP0cak0QSxoLaKOcWD8eqUY7mao6MJ6SYV9//bWrV69ezI/J9PT4aOlmPDT1B+IJyTAAyAXtHKXZv1dffdWun3DCCW727Nnu3HPPtesAACSj7du3ux49erjzzz/f3vtiSf2Z2rVr58aNG+cjsaEm+qoOGzFihPvmm298FJGmaictUT3ppJN8JPZKlCjhmjVr5vbff38fiT39jWgCN5bLiYF4RDIMAHJIs2taFqLdguSyyy5zU6dOdVWqVLHrAAAkq969e7s1a9a4Bx54wEdip0yZMm7u3LlxMRF19dVXu8qVK9M7LIqUfFTVk3pixYsjjjjC3XDDDa5gwYI+EntVq1Z1NWrUYKkksA+SYQAQokAg4B5//HHbOWvt2rU20NFSkbfeessddNBB/l4AACSnLVu2uOeee85dfPHFrlatWj4aO3///bf75Zdf3KZNm3wkdtQe4b777rPdDSdPnuyjiBQlQdWrNZ6WSIqWblaqVCnuliTqcfrss89itvMqEI9IhgFACFRe3rFjR5sJ11buhx12mJs0aZLr3LmzvwcAAMmtV69e1qMpHqrCRMskL7zwQjdhwgQfiS2NE4466ij3yCOP+AgiRVVORYoUcc2bN/eR+KBm9Voqq58tnigZtnHjRjdlyhQfAUAyDACyoSqwU0891SrARL0gtGNUgwYN7DoAAMlu8+bN7oUXXnCXX365JXzigZZJ/vTTT659+/Y+ElvqE6XqMCXnqA6LLCXDzjjjDFeoUCEfiQ9K0Ko6TJs7xBP1VatQoQJLJYF0SIYBQBbmzZvn6tev76ZPn27X1RNEDUhLlSpl1wEASAV9+/a15Yj33HOPj8SelnzNmjXLqtXixSWXXOKqVavmnnzySR9BuGkHUU1KxtsSSfntt9+sr55WFMSTfPnyuTZt2lgyTG0/AJAMA4BMffHFF+7kk092S5cutUGEtkwfOHCg7RoFAECq2LFjh+vZs6e74IILXPXq1X009jZs2GCb2KhtQbxQddhdd91lE2fffvutjyKcPvnkE2ua37p1ax+JH9ppfNmyZa5o0aI+Ej+UPNTP9v333/sIkNpIhgFABl599VWbQdMseOHChd2wYcPYIQoAkJJee+0120GyW7duPhIfypYt65YsWWJ9w+LJlVde6Y488kiqwyJE1U2nnHJKXFbpf/3117YkcevWrT4SP0477TRL0rFUEvgfkmEAkI6a4990002uS5cutkuVGuWr2Wi7du38PQAASB1aiqgdJM8++2xXu3ZtH40Pu3btchMnTnSrV6/2kfignSVvv/12Szr88MMPPopw0CSlenLF4xJJKVGihFWHqUIw3mgX9JYtW5IMAzySYQDgaVB96aWXWq8HOf744920adPibvAPAEC0vP3227a0qnv37j4SP7RM8pprronLHfK023S5cuXc008/7SMIh1GjRtl47ZxzzvGR+HLEEUfYpKoST/FIScTZs2dbCxAg1ZEMA4C9tmzZYrPe7733nl0/88wzLRF2+OGH23UAAFKNdsR75plnXIsWLVyjRo18NH4o2bRixQrXoUMHH4kf2uXw5ptvdu+//75bsGCBjyKvVNV03HHHucqVK/tIfFHVWsWKFd1ff/3lI/FFLUDy58/vRo4c6SNA6iIZBiDlaWZZ23OrYb6oOkzNWQ866CC7DgBAKvroo4/cL7/84u69914fiS9q7D9ixAi3fPlyH4kvN9xwgytWrJjr0aOHjyAvtGR39OjRcVsVJg0aNLC+YUWKFPGR+KJlnOq3Nnz4cB8BUhfJMAApbdWqVa5p06ZWBSY33nijGzx4sPX7AAAgVQUCAffUU0+5hg0bulNPPdVH48vGjRvddddd56ZOneoj8UXNylUd9tZbb8Vtwi6RfPXVV9Yz7KyzzvKR+KMJVi3bVVVlvFJ1mCrYNm/e7CNAaiIZBiBl/fzzzzbIDza3VT+Ul19+2bbrBgAglY0ZM8bNnTvX3XPPPT4Sf7RMcu3ate6SSy7xkfij/lGaYOvZs6ePILc+//xz20GyXr16PhJ/fvvtN/fSSy+5nTt3+kj8USsQ9V2bMGGCjwCpiTM+AClp5syZViauQYt2/Hn11VdpcgsAgPfss8+6o446yqpI4tX27dvdkCFD3JIlS3wk/pQsWdJdffXVbsCAAVbJhtxT8/zWrVvH9aSldpLU2FJVgfHqmGOOcVWqVLHkIpDKSIYBSDnaRUc9wtatW2e7/Wggfe211/pbAQBIbaoImzhxouvWrVtcJx60ZO6WW26xHk3x7Pbbb7fEXf/+/X0EOaVlpvPnz7dkWDz75ptvXP369d3WrVt9JD61atXKffbZZ7YcGkhVJMMApJQZM2a40047za1fv94a5GuW8YILLvC3AgAAVUqXKVMmrpcfyqGHHmrVVpdffrmPxCftLti+fXv34osvWtN/5JwSN6rkb9mypY/Ep+LFi7uTTz7ZftZ4pqSidmKdN2+ejwCph2QYgJShRJgqwjRwViJM20o3b97c3woAAJYuXWq7SN56662uUKFCPhqftm3bZm0OtONlvLvrrrvc77//btXoyDkt6VPFlZadxrMjjzzSqhW18iCeafwbnBQGUhXJMAApYdasWTYLFkyEaSv2eN0dCwCAWFH10oEHHui6du3qI/FLyyS1lFOTXfGubt26Nu7o0aOH27Nnj48iFGpGr2bv8b5EUrRLoxJif/31l4/EJ/2Nazd1+oYhlZEMA5D0lAg7/fTT05ZGKhFGRRgAAP+2YcMGN2jQINepUydb7hXvypcvb724Onbs6CPx7c4777SdrEePHu0jCIUSTFu2bLFdEONdgwYN3PTp012RIkV8JH4puTh16lQ2dkDKIhkGIKmpkal6hGmAX7hwYSsHJxEGAMB/vfLKK9bTSsu8EoESJM8//3zC9D1S8uH444+3nToROlUvlStXztWuXdtH4pcSS0ow/fPPPz4Sv8466yz3999/u7Fjx/oIkFpIhgFIWsEeYVpGoUSYmq+qJBwAAPyblqL16dPHXXTRRbbMKxFoKdr9999vFeCJIF++fNaLbdKkSTZZh9BoIlOJRD1+8W7ZsmWuZ8+e9vcU7ypVquSqV6/OUkmkLJJhAJLS7NmzbdvoYCJMAykSYQAAZOydd95xq1evdnfccYePxD8tk1QFztVXX+0j8U87dOrnVsIE2fv111/dggULEqJfmDRp0sQtX77cFS1a1Efim5aeKhkWCAR8BEgdJMMAJJ3vv//ett7W0kg1CFWPMA1OAABAxnr16mVtBBJhKVrQ5s2b3SOPPOLmzJnjI/GvQIEC7oYbbrAdO5U0Qda083f+/Pmt92siUMWf+oZt3brVR+Kbkoxr1qyxSWQg1ZAMA5BUtL26lkb++eefNuDUYJNdIwEAyNy4ceNsIilReoUFqWfYE0884ebOnesjiUE7dRYsWNB6tCFrqlpq3LhxQmzoIPo5GzVq5Pbff38fiW9aNaFm/1pBAaQakmEAksbChQst8aUZLiXChg4dmhA7DwEAEEuqClP/oDZt2vhIYjj00EOtAfiVV17pI4mhRIkS7tJLL3X9+/dPmAqiWNBOodpJMlGWSIr67d12222W7EwE+jlVEUrfMKQikmEAksKiRYssEaZ+JwcccID78MMPbZccAACQOU0kqSpEjd0TpZolSMsk77nnnoRpoJ/e7bffbjsPvvXWWz6CfU2YMMFt27YtoSY2lbw74ogjbHOHRKFkozad0qoKIJWQDAOQ8H777TfrJbFy5UobyA8ePNidc845/lYAAJCZl156yTaaSbTqKlFVlX7+H3/80UcSx1FHHWX9TV988UW3Z88eH0V6qlY67LDD3LHHHusj8U/9wqZNm2ZLDxOFKkK1EcWYMWN8BEgNJMMAJDQ1n1VF2NKlS9MSYR06dPC3AgCAzKh6Re+b1157rStWrJiPJo5y5cpZQuzyyy/3kcSiHm3aKZEkRMZGjx5tVWH58uXzkfinar/p06dbcilRHH744ZZwZKkkUg3JMAAJ6/fff7dZ1SVLlrj99tvPvf7667ZlOQAAyN6rr75qySTtbpiIlMzTckMt8UpErVq1csccc4z1bMO//fzzz27x4sUJ1S9MNDn7wgsvuJ07d/pIYlDSUculEymJB+QVyTAACWnt2rXW8FODJc0YakemRJ0ZBgAg2nTSq/fOtm3busqVK/toYlE/KU2Eqe9ZItL45aabbrLKsB9++MFHIUrMaDOk0047zUcSg3ZnXLFihStatKiPJAYlHdevX+++/fZbHwGSH8kwAAnnjz/+sESYeoRoINm7d2/XpUsXfysAAMjOxx9/7H799VdrnJ+otExyw4YNtjNjourYsaMrWbKk69Onj49AtGSvSZMmCZdU+uabb1zDhg0TbpfQk08+2RUvXpylkkgpJMMAJBTtdNOiRQs3f/58S4RpacH111/vbwUAAKFQ4/k6deq4U045xUcSz6ZNm9yNN97ovv76ax9JPAcddJDr1KmT7SrJbn7/o0TSlClTEm6JpCihpCb6ibYza/78+W18rYo8IFWQDAOQMDT7q/4a33//vV1/6qmnbHkBAAAI3dy5cy3ZkOjvoTt27HAffvihVbglMvVs27Vrlxs0aJCPpLaxY8dazy31sUo0FStWdHfccYcrWLCgjyQOJR9nzZrlVq9e7SNAciMZBiAhaGlks2bN3MyZM+26EmHdu3e3zwEAQOi0JK9UqVIJv/ty2bJlbTOdiy++2EcSk3bzO/vss+15oYH5/5ZIVqpUyR199NE+kjgmTZpkz6c2d0g0weQju5siVZAMAxD3lAhTA9VgRdjjjz/u7r77bvscAACEbuPGje7dd99111xzjStUqJCPJiYtk+zcubObNm2ajyQuVYctW7bMjR492kdSlx6DRKwKk/r167upU6e6IkWK+EjiUA++2rVr0zcMKYNkGIC4pl0jlQgL7rL0xBNPuPvuu88+BwAAOfPGG2+47du3J8XGM1omqRN37d6X6DTWqVmzpu3wmco03vvtt98Ssl+YKEGrJvqJWuGnJKQqw3bv3u0jQPIiGQYgbu2bCHvyySfdvffea58DAICcCQQCrl+/fnbCq2VoiU7LJJcvX+4uvPBCH0lsSlAqubdw4UIfST1q4K6KxVNPPdVHEsvSpUvdc889Zz3PEpGSkEroTZ8+3UeA5EUyDEBcUg+Q5s2bu3nz5tl19Qi755577HMAAJBzakz+yy+/2JK8ZKAlnx07drTNAJLBlVde6YoWLepeffVVH0k9SgYqEaZdNhNR06ZN3cqVK+15TERa5lmyZEmWSiIlkAwDEHeUCFNF2Pz5812+fPlcz5496REGAEAeqUF7lSpVXMuWLX0ksWkHRvVn0rghGSiBcskll7iBAwe6bdu2+WjqUNN59X9L1CWSMmPGDNeoUSO3detWH0ks+++/vzvjjDOsQg9IdiTDAMSVNWvWWEVY+kTYLbfc4m8FAAC5oT5Mn332mbv++uvdfvslxylAmTJl3KJFi9z555/vI4nvpptusoq3999/30dSR7BXVaI2z5eDDz7YnXTSSZZUSlR6/LVplV4zgGRGMgxA3Agmwn788UdLhPXq1cvdfPPN/lYAAJBb6hVWoEABW4qXLJQ0uvjii92XX37pI4mvRo0a7pRTTnEvv/yyj6SOESNG2O+v6sVEVbFiRdetWzdXsGBBH0k8qszLnz+/Jc+BZEYyDEBc0E5QGvz99NNPlgh76aWXbHYUAADkjZYTDho0yJbglShRwkcTn6qI5s6d69avX+8jyUHVe3PmzLFdCVOFdl9Un6qzzjrLRxLTpEmTXIUKFWzJZ6LSa0SDBg1IhiHpkQwDEHPaCUrNUrXUQYkwzYbeeOON/lYAAJAXH3zwgfXVuu6663wkOZQuXdqqyc8991wfSQ7nnXeeJVTU4y1VfP31127dunWuTZs2PpKY1ID+q6++ckWKFPGRxKTnYcKECSnZuw6pg2QYgJjSFtTNmjWzRJh6mPTv3z9pdrkCACAeKKnSsGFDV7duXR9JDhs2bHDt27e3k/ZkcsABB7hrrrnGkphr16710eSmKiRVJKn5fCJTRdjMmTOt0i2RnX322W779u1u/PjxPgIkH5JhAGJG27s3adLELVmyxCrCevfu7a699lp/KwAAyKvvvvvOqm609C7Z/P33327x4sVu8+bNPpI8unbt6vbs2WPLW1OB+oUFe1Ulsl9//dU988wzbufOnT6SmGrWrGm921gqiWRGMgxATGiXmqZNm9oSSe248/rrryfd8g0AAGJNE02lSpVKqh0Xg7RMUsm+tm3b+kjyOPTQQ+336tu3b8JXGWVHuxbOmzcv4ZdIisa2q1atckWLFvWRxKVdJZWkDAQCPgIkF5JhAKJu1qxZtmuk+pdoZ6v33nvPdezY0d8KAADCQbst6j1WVdeFChXy0eShxvlazjVu3DgfSS5qG6FEUbJX5wwfPtwmRlu2bOkjiWvGjBnu5JNPdlu3bvWRxKXkpBJ7SjgDyYhkGIComjx5siXC/vzzT9t2Wv0wknG2GgCAWNMSux07drjOnTv7SHLRMkJNrKm3UTJST9VatWq5V155xUeSk5J9SiCVLFnSRxJXsWLFrDefknuJTsefKtxGjhzpI0ByIRkGIGq0ZXarVq2suWjhwoXtzTUZlzYAABBrWtqkTWnOOussV7FiRR9NLlr+qUocVYclK/UO++KLL9yCBQt8JLmogmrSpEl2nCaDypUru7vvvtsmfBOdfocWLVrQNwxJi2QYgKhQCby2CtfsbfHixd3YsWPtDRYAAITfmDFjLIGSzDs0a5mkltbpd01WV1xxhVXn9OvXz0eSi8aDql5MlmTYxIkTXfny5W3iNxloqeS3337r1qxZ4yNA8iAZBiDi3n33Xdv6XIOdMmXK2AygtngHAACRoaV1VatWdaeddpqPJB9Vv2mSLZkbzBcpUsRdfvnlttFQMvSh2pdWCWjXwqOPPtpHElv9+vXdlClT7HlLBsGqS63uAJINyTAAEaWZTA3itP25dkaaMGGCO/744/2tAAAg3NR0fdSoUVYVtt9+yTvcV48pJR60610y0/O4adMmN2TIEB9JDur5puM0WarCRBVhs2fPTpoErSax1QNNu0oCyYZkGICI6dGjh7v++uttsKN+JRqw1qxZ098KAAAiQVVh6vejJXbJTJvxqMl3sletHHPMMfZ79u7d20eSg8aFq1evTqqNlJYsWeKeeuopt3PnTh9JfGpzor+xZFn6CQSRDAMQEc8884zr3r27LWFQ6ftXX31lZfAAACBydBKuJXWXXnqpK1GihI8mL+3aly9fPn8teak6bO7cuW7atGk+kvg+/PBDWzXQqFEjH0l8Sloqwac+b8niwgsvtNcVGukj2ZAMAxBWSn7dcccdtpOO1K5d202ePNlVqFDBrgMAgMh5//333dq1a20XwmSnZZLjx4+3naqTnXbfPuyww1yfPn18JLFp1cCwYcPcBRdckFRLebW76SmnnJJU/d20Q6bG80peAsmEZBiAsFF/hM6dO7sXXnjBrterV8+NGzfOlS5d2q4DAIDI0hJJVdrUqVPHR5LXunXr7HdNhYqV/Pnz2xjro48+cr///ruPJi5NlKqCSsmwZFKsWDFLHKliMZnoeWKpJJINyTAAYaEZsHPOOce99tprdr1Fixa2vXQqLNEAACAeqCrlm2++cTfeeKOPJDdVFB188MHugAMO8JHkdu2119rHV1991T4msmRcIimqorr33nutZ18yYakkkhHJMAB5tn79enfGGWfYjkBy7rnn2q4zhQsXtusAACDyXnrpJVe+fPmkakieFU24qVqlZcuWPpLcypUrZ0mJvn37ul27dvlo4tESyY8//jjplkiKJoKV5Eu2CiqWSiIZkQwDkCfLli1zjRs3dlOnTrXravCqEv5ChQrZdQAAEHlacqYT1euuuy5lKqW0TPLEE090w4cP95Hkd+utt9pzrbFWokrWJZJSv359+/2KFCniI8mDpZJINiTDAOTa/PnzrUnozz//bDs5PfTQQ7btd7LN8gEAEO/69etn78XBpXSpQH2Z1FQ+lSrR69at6xo2bOhefvllH0k8ybpEUpQo+u6776yPbrK56KKLWCqJpMIZK4Bc+frrr13Tpk3d8uXLbTCqQfjDDz/sbwUAANGiE1T1kbrkkktc2bJlfTT5HXLIIe6TTz5xp512mo+khptuusnGYeoRl2iCSyS13DMZJ0+XLFninnjiCfubTDaVKlWyjTlYKolkQTIMQI59+umnrnnz5u7PP/+0BqHaxl07HAEAgOh777333Jo1a9z111/vI6nhjz/+cLVq1bKEWCpRTzhVxCVidVgyL5GUZs2a2d9i0aJFfSS5sFQSyYRkGIAceeONN2wQtn37dpuRHTdunGvfvr2/FQAARFufPn1ckyZNrH9WKsmfP7875phjbEfJVKKecJqE1GTkypUrfTQxBJdIaqlnMvr222/tb1G7rCej4K6SI0eO9BEgcZEMAxCyZ555xl111VXu77//tt2qJk2a5E4++WR/KwAAiLavvvrKTsC1dC7VaFLugw8+cKeeeqqPpI6uXbtam4oBAwb4SPzbvXu3Nf5P1iWSooqw448/3p6bZKSlkupbN2TIEB8BEhfJMADZUhNQLb24++677bpmYadPn+6OO+44uw4AAGJDS+WOOOII165dOx9JHWvXrnVHHXWUGzp0qI+kjtKlS1tD8759+7odO3b4aHwbNWqUPWcdO3b0keRTuXJld//991sbkWR1+eWXu9GjR9tyVyCRkQwDkCWVQqshrwZbEtwyWgNvAAAQO1oip2bkmrDSksFUU6BAAVevXj1LDKWiW265xZJLidLQ/PXXX3fHHnusq127to8kn4kTJ7py5coldU+tSy+91Crf3nnnHR8BEhPJMACZUoP8008/3ZYgyDnnnGNv8qVKlbLrAAAgdnr16mX9ozp16uQjqaV48eLu7bffth5NqUhJJbWrePHFF10gEPDR+KSknSrDrr76ah9JTieddJL78ssvXZEiRXwk+ZQsWdKdddZZ1kcYSGQkwwBkaNGiRa5x48ZuypQpdl0l7VqGcOCBB9p1AAAQO+vXr3f9+vWzRJhOTlOREizqYZQolVGR0K1bNzdnzhzb4S+eqYpICbuLL77YR5LTli1b3Pfff28tRpKZzgvmz59v/QqBREUyDMB/qPpLyyF/+eUXly9fPvfoo49aaXsqLsEAACAeqSpMvaJuv/12H0k9Wiap5vnanTBVnX322a5OnTruscce85H49Oabb1o1kZYQJrPFixfbc6E2I8msdevW9ndHdRgSGckwAP+ipFerVq1sxlnNPwcPHuweeOABS4oBAIDYUz8iNc6/8sor3ZFHHumjqUfLJAcNGpTyO1t3797dff31127ChAk+El9mz57t5s6da8drsmvWrJn7/fffbVfJZKYJcvUO066SibKBA7AvkmEAjErXH374YevlsGvXLltyMXbsWHfZZZf5ewAAgHjQp08fS4jdddddPpKalHQoX768e++993wkNZ1//vmuZs2a7oknnvCR+KLqoTJlyrgzzzzTR5KXlg02bdrUbd261UeSl5KbGzZscMOHD/cRILGQDANgMzqa3XnkkUfsugZUejM/5ZRT7DoAAIgP27Ztcz179rTeS9WqVfPR1FSoUCHXtm3blK6Ok/32288So6oMmzp1qo/GB02wqnpI40xt9pDs1Di/Vq1atttistP5woknnshSSSQskmFAilu9erXtwqSBimj3yK+++soa0gIAgPjy6quvuj/++MOWxqW6gw8+2PXt29c1bNjQR1KXKvmrVq3qnnrqKR+JD6oaWrdunTVcTwVVqlRxDz74oLUaSQWqDhszZoxbsWKFjwCJg2QYkMJ++OEHG0AGd4LRjlSfffaZ9eAAAADxRU25n3vuOXfeeee5Y4891kdTl5ZJlipVyr377rs+krpUiXTHHXfYOG7mzJk+GnuqGlKD/+OPP95Hkps2oSpbtqwtY04FqlBVxZ92CwUSDckwIEVpFkfLIJctW2YDqKefftoNGDAgJUrYAQBIREosrFy50t19990+ktoOPPBAW36nahw4d9VVV7kKFSrYmC4eLF++3MabqdA4P+ikk05ykyZNsuWSqaBEiRK2VHngwIFuz549PgokBpJhQArSEgttb71p0yZ7sx42bBjLLQAAiGP//POPVYWpCbn69MC5YsWKuV69ern69ev7SGrT0jxVh2lcN2/ePB+NnVdeecX6ul1xxRU+kvy2bNlij73+XlPF9ddf7xYuXOg+//xzHwESA8kwIIXojfmWW25xXbp0cX///bftwKTZq3POOcffAwAAxKPXX3/dLVq0yN13330+gjVr1lhC7O233/YRaIxXunRp9+ijj/pIbGhJ76BBg6wqTL3dUsXixYttQyr9/qlCu2fWrVvXvfzyyz4CJAaSYUCK0NbHbdq0cS+99JJd16yyeoXpzQsAAMSv7du32wn22Wef7Ro1auSjOOiggyz5c9RRR/kI9Jjcf//97qOPPnLTpk3z0ehTDylt9HDDDTf4SGpo1qyZW7t2rStatKiPpIbrrrvOffHFF+7nn3/2ESD+kQwDUsAvv/xig2f1bZBzzz3Xffnll1YZBgAA4tvzzz9vuz/H206BsaaqsGeffdbVq1fPRyBdu3a1nSVj2VtOSyRbtmzpjj76aB9JDZpoVkJs69atPpIatJupKhL79OnjI0D8IxkGJLmPP/7YBomaqcmXL1/abKFmDgEAQHxTdY0SPldffbWrWbOmj0KUIFRPqsGDB/sIRJshPf74427KlCluxIgRPho9+n9nzZrlbrrpJh9JHerFq79TbU6VStSv7pprrrFNPtSTGEgEJMOAJBUIBNwzzzzjzj//fLd582Z7c/7ggw/cY4895vbbjz99AAASgXo/7d692z344IM+giCNbe6880537LHH+giCLrjgAtewYUPXrVs36xMbTeodpR0+W7du7SOpQxV5Dz/8sCWHUo2WxKpXmhJiQCLgjBhIQkp+tW/f3srjtc2xBiTqG6HEGAAASAxLliyxHaC1Q+Bhhx3mowhSXyZVQNWpU8dHEKTVAE8//bStDHjzzTd9NPJWrlzpPvnkE3fjjTem5OTrhAkTXJkyZdxff/3lI6mjQoUKrm3btrZUUucfQLwjGQYkGfUH0xbjWh4pp59+upsxY4arVauWXQcAAIlBk1raie+uu+7yEaSnZZJK+minTfxXkyZN3FlnnWVVhdHqYaVEiKqirrrqKh9JLSeddJKbOHGiVS2mIi2NXbhwofv88899BIhfJMOAJDJ8+HDXoEED99NPP9n1zp07u88++8yVKFHCrgMAgMSgiSz1+FQiQ43i8V+qDNMum7Vr1/YR7Ev95rS7Ya9evXwkcrREbuDAga5jx46WxE1FW7ZscT/++KP7559/fCS1KAGrneq1VBaIdyTDgCSgXhDqCdGuXTu3ceNGa47/9ttvu/79+1sTVQAAkFjuueceV6lSJZvYQsZUfaPH6fjjj/cR7Eu7OSo5pSWTv//+u49GxrvvvmsbPqh3VKpatGiRe+ihhywxmKquv/5698UXX6RNzgPximQYkOA06FCDUs38qWm+GndOnz7dXXrppf4eAAAgkajSW72HnnrqKVegQAEfxb5WrVpljw/LJLOm6jlVKqm/WqSoR1SPHj1sTHrMMcf4aOo59dRTbWyuqsVUdckll7iyZcva8QDEM5JhQAKbOXOmq1evnhs3bpxdV1+Ib7/91h133HF2HQAAJJbt27e72267zTVu3Nh2BETmtHxUCUONhZA5NTZX37l+/fq5uXPn+mh4DR061Jr1q1IvlWlsroRYtHq0xaNChQq5W2+91b3zzjtu2bJlPgrEH5JhQILSWnwNlPUms//++9tgUDPJxYsX9/cAAACJ5plnnrH39t69e1tzeGSucOHC1rA7lSuRQtW9e3d3xBFH2BJGrSQINx23TZs2dSeffLKPpCYdkzoeNTZPZVoqqWXML7zwgo8A8YdkGJBgtFXzxRdf7G6++Wa3a9cuV6pUKduxRTtOMWgGACBxLV682JIKSliccMIJPorMaDdJnXAPHjzYR5CZAw880L344otu6tSp1lc2nDQOnTVrVspXhYnalTz66KO2o2Yq0zJRJcRee+0128ABiEckw4AEoiWQ2jHpvffes+sNGzZ0c+bMcaeffrpdBwAAiUtLi7QLn3o8IXt6rJ5//nlXv359H0FWzjnnHNemTRvbdGnTpk0+mndPPvmkq1OnjjvjjDN8JHWp11/p0qVt8jrV3XLLLfaxZ8+e9hGINyTDgATx6quvWun5kiVLrAJMlWGTJk1yhx12mL8HAABIVOq5NHLkSGs6TcuD0Gj37CuvvNJVq1bNR5CdXr162c7jWlEQDupb+9VXX7kHHnjAR1Kb+tcpIaaKxVSnpGDXrl1tyfe6det8FIgfJMOAOKeZuwsvvNB16dLFlkWWLFnSjRgxwgYz7DAFAEDi03u9qijUePvyyy/3UWRHyyQ1Lgr3sr9kVqVKFffggw/aJOuUKVN8NPe0JFBVYW3btvWR1KbG+dpIQLt3wtnSWfWoe+6553wEiB8kw4A49vXXX7vjjz/effjhh3ZdlWHfffedlbgDAIDkcOedd7oNGza4AQMG0P8zB1RBp6qTRo0a+QhCoZ0l1ZOuU6dObseOHT6ac+oVpoSalvVy3P7PokWLrEpu586dPpLa1NtYvcP0d/r777/7KBAfSIYBcWjPnj1W+dWkSRPbUSq4LFJl1yyLBAAgeXz55Zdu4MCBllBQ1Q5CV6hQIde+fXt35JFH+ghCkT9/fjvm1HrjiSee8NGc0zFbt25dJmnTUXWnlgSqgTz+Rz3q9ttvP/fss8/6CBAfSIYBcUbJr2bNmlkT3d27d7syZcrYzJuSYwcccIC/FwAASHRaUqXqHC0z0/s+cmbNmjXu0EMPdUOGDPERhEqVYTrmtHvp7NmzfTR0n3zyifvmm2/c448/TlVYOjNnznTNmze3v238j5Yy33TTTe6VV15xK1as8FEg9kiGAXHko48+sgFxsIdDixYtbLdIducBACD5aHnk8uXL3aBBg6xaBzmjZZLBDYaQc4899pirXr26u+yyy9z27dt9NHvqh3Xfffe5pk2bulatWvkoRJs66DHdf//9fQSipbl6bNSvDogXJMOAOLB582ZrkH/BBRe49evXu4IFC7qnn37ajRkzxpUvX97fCwAAJIuxY8e6/v37WwPy4447zkeRExovacKwQoUKPoKc0DLTwYMHW5+rnCQplID86aefaIqeAe1sqqWnOjbx/5S4VgL1zTfftIl+IB6QDANiTE3yVaqugYXUrFnTzZgxw3Xv3t3W1wMAgOSyceNGd80117iGDRu6O+64w0eRU2rIrX5h77//vo8gp7Qi4e6773YvvPCC9a/LzpYtWyyB26FDB3fiiSf6KILU31dN4//66y8fQdANN9zgKlWqZEkxIB5wpg3EiPqBPfzww1barwamou3UlQhjhhgAgOTVuXNn2z1SVTksp8q9Qw45xL3xxhu24RByT7sfavfyq666ym3atMlHM6ZqMK1iUK8w/Fe9evXcuHHjXJEiRXwEQQUKFLDjRr2Qx48f76NA7JAMA2Jg7ty5NpumXXjUd6Fs2bJu5MiRNijWenoAAJCcVAn+4Ycf2sY47B6ZNzq5bty4sY2jkHvaoOntt9+2Sju17cjMb7/9ZjsC3njjja5y5co+ivS2bdvmFi5caON7/NdFF13k6tevb5s3/P333z4KxAbJMCCK9KKvXXv0JvD9999b7Pzzz3c//PAD21IDAJDk5s+f72677TZ34YUXuquvvtpHkVtK3qhHk5KLyJsaNWpYglZLTl977TUf/Tct6VXFkyrJkLEFCxa4e++91+3cudNHkJ52Hu3Tp4/78ccfbXdJIJZIhgFRoqWQ2mpZfRn0BqlGkmqcqwFc6dKl/b0AAEAy2rFjh7v00kvdoYce6gYMGOCjyIsSJUq4IUOGuFNPPdVHkBedOnWyY/Smm25Km7QNUi8s7XquSV2NYZExjfW1jLRo0aI+gn3VrVvXdezY0ZKqa9as8VEg+kiGARGmMukXX3zRHXvssW7KlCkWO/PMM212WD1DAABA8tPSMu3A995777lixYr5KPIif/78rlatWtY7DOGhah3tznnJJZdYs3zRygZVNCqJccUVV1gMGZs5c6Y77bTT3NatW30EGdGu+doo7P777/cRIPpIhgERpISXGuTffvvtbvv27TZLpGow9QcrX768vxcAAEhmeu8fOHCge/7559mBL4zWrl1rk43Dhg3zEeSVErUffPCBrWjQjqeBQMD17NnTzZs3z/Xt25edzrOh3r9Vq1ZlY4xslClTxjYSe/31193UqVN9FIguXs2ACNi1a5c1x9d21V9//bXFNEukknNVg2m9PAAASH4aB9xyyy22/EzVYQgfLZMcOnSojbEQPhq/aqMHJcXuu+8+S1pcf/31tlMisla9enX31FNPuYIFC/oIMqPXw9q1a1vSVcvIgWgjGQaE2Zw5c1zDhg1t4KCk2MEHH2wzwmPHjnUVK1b09wIAAMlODd61Uc7RRx9tyQWEl5ZJVqpUif5MEXDZZZe5G264wZazKbHz2GOP+VuQlfHjx7uSJUu6v/76y0eQGVXPDRo0yKoQ1YsOiDaSYUCYaBmkmuNr1mz27NkWO+uss6ysnGowAABSiyodzjvvPPv4ySef2PIphJeWSaqKSY8vwk+PrZZJ7t69261bt85HkRWdB2gCXLtuInvHHXecu/XWW92TTz5pO0wC0UQyDAiDESNGuJo1a9qshhrmlytXznaJVPywww7z9wIAAKlACYSrr77ammlrBz4qwyNDFTgaa51++uk+gnBZvXq169atm03sajmqPm7YsMHfisxs27bNLV682M4HEBqtptH5knYz5XFDNJEMA/Jg5cqVtqvOOeec43799VeLXXDBBe6HH36wZREAACD16ORuyJAh7qWXXnLNmjXzUYSbmrmXLl3aFSpUyEcQLtdee62tahgwYIAbNWqUW7NmjWvXrp3buXOnvwcysmDBAlspQg+s0Klq9s0333QzZsxguSSiimQYkAsqF1cPhaOOOsq99dZbFtPn48aNs2ajpUqVshgAAEgtb7/9tvVX6t69u+vSpYuPIhL++OMP16BBA6sOQ/io1+1nn31mu0dqtUONGjXce++956ZNm+auu+46fy9kpHnz5lZBp105ETrtvq/lkppIUEUtEA0kw4Acmjx5su18cs8997itW7e6Aw880D300ENu7ty57GYEAEAK++KLL2xnNPUKUw8cRJaWSY4ZM8a1atXKR5BXWulw1113uSuvvPJfqxz0GPfq1cu9/vrr7oEHHvBR7EuJnBYtWtg5AnLmiSeesM1GOnbsSGUdooJkGBAiLYnUzjpa7jB//nyLqX+CPtcsBlsoAwCQurTEp3379q5Ro0ZWHaYlfIgsLePTEkntSoe808oHjXUPOeQQ17NnTx/9f9dff72777773OOPP+5eeOEFH0V6WvJXuXJl/v5zQedSWi65aNEiKzoAIo2/UiAbu3btspmwY445xr3zzjvWFLdChQr2Yq2yfG3pDQAAUpcmxs4880w7Cf7444/pYRUl2uGwadOmtqQPeadEl5K6SuYefPDBPvpvSoTdfPPN7s4777QqMfxb9erVre+VVo4g57T6RhViOvfSaykQSSTDgCxoR0j1AtMa9s2bN9uMhZpi/vLLL9Y4HwAApDbtHHfGGWfYkr2xY8e64sWL+1sQaerROmnSJEtEIm/UJP+5556zfnennHKKj2ZMVWGqglRPvOHDh/soZPz48bb75qZNm3wEOXXHHXfY5mTakTe4QRkQCSTDgAzMmTPHZhovvPBCt3TpUosFl0Q+9dRTrnDhwhYDAACpS4mwU0891eXPn9/6hZUpU8bfgmjR0r49e/b4a8iN5cuX2ySv+oJ169bNRzOnZamqHlOvXO2iTkLs/5144on2WsC5Qu5p+fOgQYNsE4KLL77YVukAkUAyDEhH20Z37tzZ3sjUKF9q1aplu0RqSWSVKlUsBgAAUtuyZcusUbaoGuTII4+0zxE9WiZ5+umnu9GjR/sIckqNylXlpWV9gwcPDrnXlVZLfPrpp65ly5aWEPvkk0/8Lalt+/btVs2ktirIPVXXaQfT2bNnu1tuucVHgfAiGQbstWXLFlvfryWRAwYMsBlGvQireahehNklEgAABKkiTEvJNF7QMj0my2KjdOnSbtq0ae7ss8/2EeTUDTfc4H744Qc3dOhQW3aaEwUKFLCWIqqOvOiii6gQ22vBggVWXaekGPKmYcOGrn///q5fv352AcKNZBhSWrA5vhreqhfYX3/9ZW/s6hGmnUw0E6GlDwAAAPL9999bIkxLeSZOnGhjCMSGkpEbNmxwO3fu9BHkhHqEaTlanz593EknneSjOaPNIlQVpoTY+eefb8snU1nz5s3dxo0bbYkf8u6qq65yXbt2tU0bNPEAhBPJMKQklS5rJqtGjRqW+Prjjz9sUKsyb/UFe/HFF21baQAAgCDttKeTXe20N2XKFBJhMfbnn3+6Nm3aWI8m5Mznn39uE8G33367NSrPCyXEVBV27rnnWu+x559/3t+SembNmmVLd7dt2+YjyKuXXnrJqsTUy5mG+ggnkmFIOdotp06dOvaCqmUOon4HevP64IMPXNWqVS0GAAAQpPGDql8qVapkibAjjjjC34JY0TLJmTNnurZt2/oIQqHHTONgJW169Ojho3mjlRXvvvuuu/baa92dd97pHnzwQX9LalHvtYoVK9okO8LjgAMOcB999JErWrSobfKgXoFAOJAMQ8pQE/wGDRrYDOJ3331nMTXKV3zMmDGudu3aFgMAAEhv4MCBrl27draUTM3yc9pbCZHxzz//2E6IW7du9RFkZ8mSJbZDuvrkapWEdoYMF30v9Xh6+umn3WOPPWY7AapBfyqpXr26e/bZZy0phvBR4lsVoJs2bXJnnnkmf/MIC5JhSHraYUiltZr9+uabbyxWrVo126FEyx1ojg8AADKitgoPP/yw69SpkzvvvPNsaRm9gOLH+vXrbWmeJjaRvbVr19pqiCJFililoz5GQvfu3d2rr75qTfk1zlY7klShZLlarShpg/DSRiXawfTHH390HTp0cH///be/BcgdkmFIWl999ZUtZ2jdurX7+uuvLaayZc1Y6UVUu95QwgwAADKiygMlWh599FGrchkyZIj1RkL8KFOmjG1ooOcJWVN/NU0Mb9682SaK9dhFkpZLjhw50nrxNm7c2HZZTAVadaIVJ4ULF/YRhFP9+vXd+++/b8dwx44drToUyC2SYUgqmsEdMWKEa9Soke30FNx1RH3A3njjDbdw4ULXuXNndogEAACZ0nhBYwmdcL311lvu/vvvZwItDqkyRBOc2r0PmVOVknot/fbbb1bdGK3+uKpC+/bbb+3zevXqWaVYstu+fbtbtmyZnZMgMtTyRpMT6vWszR+0qyyQGyTDkBR2797tBg8e7GrVquXOOeccN336dIsHK8F++uknmz0gCQYAALKiE3ZVdyiBoCrzSy+91N+CeKNlklouNXHiRB/BvnQcKymlBO/YsWNtE6loUmuSqVOnWkWPdm2/5557krqaRxVw2kBASTFEzvnnn+/eeecdu1xzzTUkxJArJMOQ0FTqre2btbW5kl0qxRY1BR00aBCVYAAAICSaWLvjjjvshF3LurTLtJJiiF9ly5Z1v/zyi50Y47/Uq6tFixb2GCkRFqvjWc3PVZF23333uWeeecaSc7///ru/Nbk0b97cEpD0Fow87Yiq3nQqiFCFGD3EkFMkw5CQ1qxZ4+69917b1lyzLytWrLC4doscNmyYlcxfddVVJMEAAEC2tMNes2bN3Isvvui6detmvY5Klizpb0W82rVrl22OlEoN2kOlJZFNmjRxS5cutQ0GtEwxlrTTpHrv6W9Lu7prNcfw4cP9rclDSXQl+7Zt2+YjiCQlwVQAoQqx9u3bp9zupcgbkmFIKHqD6dKli1WCPfXUU2k9IjSDqzdULY9UE9X99uPQBgAA2VNVwfHHH28TaxMmTHBPP/0044gEsWHDBnfFFVe4L7/80kcgP//8s/XO/euvv+yYjqcKxzPPPNOSYccee6xr27atPX/arCJZaJMNTdbTYzB6tDro448/turHM844g508ETLe6RH3NOv34YcfupNPPtnezFUOq3X4BxxwgLv88svdDz/8YD09zj77bP8VAAAAWVu1apWNHXQipX6j2pVQ1WFIHFom+euvv9pyKfyP+qdpzKzdDLWbuiqw4s3hhx9u1WpaMqmdAevWrZu283uiU6sWtXA58MADfQTRcNZZZ9lSXCVaVRGpTQyA7JAMQ9zSDK16C+gNU4McNd8UDXy0q5MGP5rN1cwSAABAKLTLmzbXqVGjho0t3n33XVtic/DBB/t7IFHs3LnTjR8/3q1evdpHUpsmjFUZowTYlClTbAwdr1R9qSXJSoKprYlWedx8883WDziR6XgsXrw41Ukx0LRpUzvu9difdNJJaeeOQGZIhiGuqPHhiBEjbKljpUqV3JNPPunWrl1rt+lFTckvZfrVc6BChQoWBwAACMWiRYusoXjXrl1tGZmqyy+++GJ/KxKN2mV06tTJToBTmcbPt956q7USufLKK90XX3yRMD3vateu7ebMmWNjfiXzjj76aFvylqi0imX06NFWmYfoO+6446yPYNWqVd1pp53m3njjDX8L8F8kwxAXtA3xww8/bC9cWqrwySef2Bt7gQIFbFcnrQHXC5uWRRYsWNB/FQAAQPbUk0jjDFXMqJ/S0KFDbfKNibXEVq5cObdy5cqUTmguX77cnXrqqa537962AYQSSmolkkj083bv3t3NmzfPlhmed9557vTTT3c//fSTv0fiUAN3PSeqQEVsaBWReuVddNFFtqGaEuZqsQPsi2QYYkYDU2Xrta5bs0CPPPJI2vpuJcU0Q6SdcD744AObxQUAAMiJPXv22E5jGldo452bbrrJkmE62UbiU+Lh008/Tdn+QNqZUZVVCxcutH5Jqg5LZPo7VS+xAQMGWA8//W533313Qi2d1OvL7bffTvIlxlQ88eabb9plyJAh1pdOlcBAeiTDEFWq9lLpsEq4Dz30UMvWq7RdsycHHXSQ7SgzadIkqxS75557LLMPAACQU1oqphYL11xzjX1U1UmPHj1c0aJF/T2Q6LRM8vrrr3fTpk3zkdSwbds2d8stt9hqCh3bOslXJVUyUC8xVfLoXEDJa1W7Va9e3fXr18821Yp3WpqnXTyLFSvmI4glnVvq9UETIw0bNrR+kVTtIYhkGCJOLz7a7VFv2ocddphr3bq1ZemDszzK1Pfs2dNKihVX80O2IwYAALkxefJkG0uokfju3bstKabqoWrVqvl7IFloYnXdunXu0ksv9ZHkp0nk448/3pZDajfGzz77zJUuXdrfmjy0ocWzzz5rSWwlMZT01EoSrSrR5Hq8mjVrlr32KGGJ+KC/l5kzZ1rrHfWLVOJ46dKl/lakMpJhiJhvv/3W3XHHHe7II4+0JrUvvfSS+/333+22I444wt155502k6UXJyXKSpQoYbcBAADklJJgLVu2tESYNt957733rDF3slTM4L+UcHjrrbfc4sWLfSR5aRJZ4+VmzZpZc3wlXe66666kn0BWEnvYsGFuxowZ1k9Mq0q0k7yedyW7402hQoVs8p+J/fhSpEgR9/rrr1vyWEtZ1Wj/lVdesaINpC6SYQgbzdIEK8CUAFPZ9gsvvOBWrFhhtyvZpQb4aoavbLxme/RmBgAAkBs6kfnoo49cgwYNLAn266+/WpW5qknUPFlLrpC8Nm3a5G677Tb39ddf+0jy0ZIuHdNKBKkaTL3vpk6d6mrUqOHvkRq0S6P6oulco3z58rb8rUqVKu7555+Pq55iql7T0s4DDzzQRxBPzjzzTHt/UJXYjTfeaMdVqu9Gm8oYISBP/vzzT/fhhx/aG1KpUqXSKsDU+F6KFy9uCbDhw4e7NWvWuMGDB1szfGZLAABAbikJ8vLLL1svIZ3UKCmmDXc0468xyf777+/viWSmZZLqz6TnPBlpJ3UtEVSvXSV8f/zxR9etW7eUPr4bN25sOwXqsalfv749Hocffrh9XLJkib9X7GgDAC3x1GsU4pPOTwcOHGjVxKKJlEsuucRa9iC1kAxDjqj6a/r06e7xxx+3xJca3F944YVWqhx80dc25V26dLEy1GAC7Oyzz064bZ4BAEB80QmwGuKrMkQ756kKY+LEibaESkkxkmCpRcsk+/bt63766ScfSQ6qXNH4WokwbRIwatQoWypYqVIlfw9oBYom5H/55RdLZPTp08eWVKpflx6rWPUVC1awFS5c2EcQr04++WRr16M+dOPHj7fdTHUOu3LlSn8PJDuSYciWZllUlq035TJlyrhGjRq5Bx54wMqU//nnH7uPSrW7d+9uZabKqmvHF5WhaltbAACA3Fq1apUtO6pdu7ZVx2iy7eabb3YLFy50I0eOtB5KSE2aiNX4U31qk8H3339vSV31M9Lv9Nprr1liTJtPIWNKYKj3k14nevXqZR/bt29vLVt0bMydO9ffMzp27NhhyRR2LEwMWkqvylLtXnrPPfe4999/35Kq6nu9evVqfy8kq3x7/1Bj9pd63333WdJES+0QH7TMQCXYqv768ssvrQw5oxcCNSFs0qSJa9OmjTvrrLOsIT4AAIieZB5HqRpG1R3vvvuumzRpksVOO+0016lTJ9e2bVtXoEABiwE7d+601QeJ2h9OY2+Nt5XIUaJXzdd1Iq5d75hUzp1p06bZRL5eQ9RPrGbNmu7iiy+2S+XKlf29IkMVRu3atbOEWLFixXwUiULHi5Kr6s23fft2e79RFbKKQZB8SIalOPVZ0CyUGnGq0ktvHuvXr/e3/j8tOzjhhBOs35cuWiLJGzQApAYtNxkxYoSrV6+enaghPiTbOEo7Auo4U7WXerlopzj1BNISKFWnlytXzt8T+J8tW7a4nj17WjuO448/3kcTgyqY3nnnHde/f3879uvWrWubUGnjB5K94aEqLW3cpeWUQ4cOtWW1SoZpIl8VeEpwsMkGMrJhwwY3YMAAW36rXtg6Vjp37mxVhyoKSRRK6A0aNMjVqVPHlhbTSuDfSIalEG0zrsSXyoX1Uf01tM4+o0NAfyja6bF58+Y2E6vGgon0hw8ACC+9d2gyRA2rtQy+VatW1siYfpCxk+jjKE3IKemlnl+jR4+2ynSNP3TSoZPV8847z5ZAAZlRQkm9atUM++qrr/bR+KVkzCeffGK9dpWkyZ8/v1WeaNmvXk8ROUpu6LFXsv2LL76wRKp6H+v97NRTT7VLOCZ7Zs2aZa/Nqko76KCDfBSJSpOBH3/8sevdu7e1A9JzqoSYllZqiX4iJJfUU1Hn9KqiVU89LbvWGE7tj1IdybAktHXrVlv3/MMPP9glmPz6/fff/T3+SztBqg+HLmrWqdn/okWL+lsBAHDuu+++sxMGLWETNQhu2bKlnUxocKWTUkRPoo2jtKmO+iCpEl1LH3XSqN6jGoNooK7qHh1HJUuW9F8BZE+nMvG8S/kff/xhDdWVhNFHJWFUBabd1lX1WLp0aX9PRIuSAkrCqxJ1zJgxVpkn6hWlBIdawaiKRtdzemzNnz/fPf/881ZRdOCBB/ookoH6Ymvpvnr5LVq0yN6r9N6lyRsltbWLaLxSQkzFLXo9Eh3XWvWllkcaw6Vq1RjJsASlA1kv3MGLmtzrj1Kfa7CZFZ28qOpLb8RafqAEmLYmBwAgO/smxDR4Cm6mor4sGhQqoaHqHqrGIiuex1ErVqywSq/Zs2dbAkyX4Lb1hxxyiJ1sBqsxatWqFdfJDMQv9ffp0aOHO/fcc20ZUDzQ5LMSvqp61EWT0lqKp/G2Er76WRl3xxe9Nik5FrwsW7bM4sWLF7cCAV10fOm1SsssVdGXGb0fqgKQooLkpfSJ+mt/+umnbvjw4e7nn3+29kH6G9d7m9oJqbgk3lZVZZQQE/0+6m8XnNhMpaoxkmFxQmvaNVOkJQMq41VCS2+mKv/W8kZ9VEwXNbTXi2x2dIBXrFjReijoxVs70+jzKlWqsD4eAJBrOrlTEkMnoum3r9f7jt5fdDJQqFAhW/ajkz8tdzv88MP9vRAusR5H6f9dunSpnTj++uuvdkKgqgglwbTLn6j3kWafgyeUuhx99NGMQxAWGhNr10D19unYsaOPRodOoXTsa/WFVmLooyYLtDpD9JqnE0+1G1H1BRVgiUPJ/GASX21lZs6cmfaapqSHXsOOOeYYmwCqVKmSnW/pojYCWv6qZIImjOK5Ugjho4IUVRkqkapEuM7llTDVufe+l1i/DqhFkl6X1q1blzaRGaSfOTim0zGuaje1x9D9k3VyMy6SYXrBSQZ6oVQTz33pIQ6+gIqWMSrxpY96odTn6U8mckrr3TVLoRdjXfS5El46iNnFBAAQCTr5U++JrN7D0g+sdKJwzjnnWHJMM6c0iM674DgqWHGVW1oypCa7Sm7qo8YnGrfoozbV0aScLppN1kUJCP2feu6D9FxrDFKjRg131FFH2UeNQ/Q5zzXinSajdWIYrHgVndCmv+hvQce9mmkHL/rbEVUBKTGiyWetutBEADutJw+dyynhr8oaJf2V8NdHJT7TFyjota58+fK2CkfVfzpH0zJwJUB00XmZqoV0u5ZQqkpWr530ZU4e2h1Wx4n6i6kVwLx58+xY2bVrl92u51oJ/OBFCVQtt1QVYokSJeyYCB4PqrzXMaNElI6ZcFm4cKG1uNCE1r4JsaB9q8Y03lNiTIn9ZGqJEfNk2Msvv2yDLwAAkLzSD6xUNaal+hpcqek1vcZyR+OoXr16WdIKAAAgElTNrUSfxnKa+FLS/6abbkr4XmPUqAMAgIhTEiw4/6bWAFOnTnUPPvigLZtTQmf37t12GwAAAOKHEmGicZx6lQ8ZMsQ2m+jQoUPaBhSJKKaVYZrJVFkyfSMAAEg82h2tS5cuNjgKDpQyE2y0r/d8NSI+/fTTrdxejfaDVWPImWC7BQAAgFBNmDDBXXPNNTYuy278FqwKEy391XJJ7aJ5wQUXJPxGETFNhgEAgMQ0dOhQmxHUACmjgZQGTxpi6KI+GGoirZ0m1TNMPTEAAAAQXaNHj7bm+EqEZdYzLJgA00dtgqOxmy6azEymCUySYQAAIEcyS4QFG+Zr8KRdk9QTTAkwNZOm+gsAACB2MkuEpa/+0qYPrVu3tuSXGu0n866oJMMAAEDIPvroI0uEaRCVvvpLgycNnDSAUgk91V8AAADxYdSoUa5du3ZpPVqDCTBNZGrSUq0rNIY79thj7fZUQDIsyrSt6sqVK63PR7ly5ezkIZz0fYNbrB922GF53qpX20hrC3Xt/KXvV7BgQX9L7uh7aVt2nSRp6+Fo7j6hP3w99tq9VOudy5Qp429JDOF+LnJCL5T6v7UFr7b/1XMXziqPSP9dxLtY/l0gcpQsWrVqlW3Jr2Naz22iS58I03Gq3YSCgyeV0VP9lZwS6TVq586dNg7SR/2s8Z6U1eO6Zs0aG6/pvV1b6EdLuF+j9F6ux3779u3u0EMPtfFCTmzbts2+XmMOPRY57UWzadMmG0voxO6II46w8VJOhPO50OmVHluNm7RMXI+tTjyjJdbPRTyJ9XMBxAMlws4991x7bRD9Hahyv1WrVjaBmei9v3JNyTBE3tSpUwPt2rULFC5cWMnHtMtRRx0VePLJJwN//fWXv2fO7R3MBIYMGRJo3LhxYO8ANe176/OGDRsG3n777cDff//t7529rVu3Bp5//vnAscce+6+fde+gInDmmWcGJkyY4O8Zmt9//z1w1113BfYOTP71/fYOUANXXHFFYP78+f6ekTFjxozA+eefH9g7uPnX/1+1atXAI488Eti4caO/Z/wJ93ORU7/++muga9eugTJlyvzr/y9btmzghhtuCCxbtszfM3ci+XcR72L9d4HI+emnnwJXXnllYO+g+1/P7d4TisAdd9wR2Huy5e+ZWD788MPA4YcfHrjqqqsCH3zwQWD9+vX+FiSjRHuNGjt2bKB169b2/pj+5z3uuOMCPXv2DGzfvt3fM/Y2bdoUePzxxwPVq1f/18+q98Lzzjsv8PXXX/t7Rka4X6O+/PLLwN6TqsCBBx74r+9Xo0aNwLPPPhvYsmWLv+d/7dmzJ/DRRx8FmjZtGsifP3/a1+63336Bk046KfD6668Hdu/e7e/9Xzt37gz069cvUKdOnUC+fPnSvr5AgQKB0047LTBixAh/z4yF+7lYvnx54KabbgqUK1fuX9+vdOnSgc6dOwcWL17s75k1jX80RhozZkxg9uzZWT4G6cXquVi0aFFg3LhxgUmTJtljkBP6f/V6ot918uTJgT/++MPfkjGd0+gx0f2/+uorew4zEqvnYt26dYEpU6bY/efNm2fnaVlZtWqVPW96Dfvll198NHNLly618f/48eNtnJ5TP//8c+CLL76w/3P16tU+mjuhPheRonM4/b/6/7/77rscne/GwoIFC+x51t/JypUrfTTyPvvsMzsPPvXUUwM9evQI/PDDD/4WkAyLMP1R3n777Wlv0FWqVAl06NAhcPXVVwdatGiRNmirVKmSvZjk1J9//hlo2bKlfQ+9WZ144omByy+/3AaqeuNSTLc1b948sHbtWv9VmdMA6eijj7avKViwoP3R6MTnkksusQSF4rroTUQDkOzoxalkyZL2NcWKFQu0adMm0KlTp0D79u0Dhx56qMUPOOCAwIsvvui/Inz05nrvvfemPfYVK1YMXHTRRfbY6zE76KCDLK6Tu0gPPHMj3M9FTr311ltpj1GpUqUCbdu2tf/rnHPOSXtO9cKqRGxORfrvIt7F8u8CkfXyyy/bSZieQw3A9ZzqudVzfPDBB1tcyQQNTBKJBv/ff/+9va4i+SXSa9SOHTvsvUM/ky7HHHNM4NJLL7Vkj07qg3+PNWvWDOlEM9JmzpwZOPLII+1nUsLi9NNPt59f4xO95ymu98Zu3bplexKdG+F8jdLrgibG9DW6KKF08cUX21hF406NXYJxJQX2pRNZJW50H/3OSmgFx7ANGjRIm+A9+eSTLWGwL03I1a1b1+6j5M0pp5wS6NixY+Cyyy4L1KpVy+K66LHNKAkU7udCEwZFixa1r1Oi8eyzzw5ce+21Nn5SAib4/yiplBkdoxdccEHacxS8FC9e3JLTmSUbYvFc6P1g0KBB/0kk6qLzkZEjR9r9MqOx61NPPZX2mhK86NxFz4Ums9NTUqp79+52fKa/v16LdBwryRMUi+fi22+/DZxxxhn/KkzQRRPITzzxhL1WpaekSKNGjdLGwsGLjr1XXnnlP8ecJqGU3E9/X1302vbee+/5e2VM42797QeP9+BF/7ee04kTJ/p7hiYnz0UkKHmqyfT0SVtd9Fzfd999WSZ9o01/J0rYV65c+V8/qy7621JiMpK2bdtmr+fJXGCQFyTDIiz4xqQqJM2Y7EvJrFtuucVejDTwzMmLhw7u+vXr2/fXm4aSJ/vSC7lemHUfDRiyenHQTEPwDalLly42K7wvzXRodkn30WAjK3ph1Zuv3kSefvpp+3nTC1a0Bd+Uwj2o1huVvq9e+EeNGuWj/09v/Brg6E1XA0Cd6MWLcD8XOfXuu+/aMamBxKuvvhrYtWuXv+V/dL1Pnz42c6rHTzOJORHJv4t4F+u/C0RO79697TnTMfvOO+/8ZyCr5/qZZ55Je/4zOvaBWEuk1yidZFx44YX2c+gkcdq0af6W/6fKByUEdB9VPq1YscLfEn06gdPJo97b7rzzzsCGDRv8Lf9v9OjRaYmYW2+91UfDI9yvUcHHVRN3qjLZlyZhr7vuOruPEgJLlizxt/wvEdKkSRO7TUnLjBI0qtxREkP3UXIrffJB31tjCN2mybSMqpGU7KpXr57dR9X06atGwv1cfPLJJ5YE0SSiHud9JymVrHrttdcsuaz/c/Dgwf6W/6f/L5jAyexSrVq1DKvyo/1caJymx13Xs7ooYZIRjcGVCMroa4IXJVb0mIme3+AEcWYXjUmVgIvFc/HGG2/Y30xG9wteVKQQPM60+kH/d0b3C16UnFQCTa9z119/fYb3SX9RUjujCStVxbZq1SrDrwleNJZXxVAocvJcRMKnn36aNlmf2UXnRxkl0KNNx56Sdhn9jMGLjgOtVEJskAyLIGX8dZBrllIls1nRDIDuq+x8Ri9kGXnwwQftazQQzKosVIMdzZLqvvfcc4+P/pcGCrqPZmmyosyyZox038ySIBpQqRJLGfuMElHpqbRay/D0JhKuWVuVzOrFRRVH2ZX76w1Mv4tmsfYdGMZKOJ+LnNLjpeSgqr40kMzKN998Y29ImonJ7hgPivTfRTyL9d8FIkfPl04gVUWZ3fOlWUAN8lWVqqXQQLxItNcoTdzoPUITg9lVAuhkQ/c999xzfSS69B4WnMAcMGCAj2ZMy8SC1TZaThMO4X6N0gmpfr7jjz/eEhtZee655+y+qsoPUqJVMSVYlJzIjB43neTrvpokC1IFmGKqMs+KkgmqrNd9+/bta7FwPxdaMq7HVZVGWk6XFS3lUhJGiZb0J+taPqUEgv6f7C5K/KafpIzFcxGsyAvloknVfQWr0LK7KKml5YC1a9fO8PZ9L3oOlOSM5nOhCYR9K5QyuygppSqujG7L6KIJcSWpMroto4sq0PYVTJSGchk6dKj/qozp+Aj1udD5Qbgns7W8b9+l8JldlHzM6vw4GtJXa2Z3UVsjRB/JsAgKLl8MdQleMGuf0czmvvTmrjJdvflm98YnSpqoHF4Jjn1neUWzQPq/NUsTStJB99csggYTGdEsi77fjTfe6CNZ0wuA7q+Zj3AIZuFD7amlvhC6fzxUaoT7ucipxx57zP5/9ZYIhd54dX/NJocikn8X8S7WfxeIHJ2k6bnKaslFerfddpvdf+DAgT4CxF6ivUbppEwnoaEk4zTZFawS0slutKlaR/+3Eg6hUPW37q/li+EQ7tcoTVJp0nHu3Lk+krVg5VGwr4+qkzTxll1/KNG4Vb3rdBKs6jBV+ylJokm1rJI3QapkUXJEE6QS7ufihRdesNsffvhhH8maetjp/prUDtKSRsVCvaRP4kX7uahQocJ/fp6sLqpETL9EUMmjjO6X2SVYnZeTSzSfCx1XGcUzu+zbhzeri8b32VVBpb/oOFfVXpCSR9lVoKW/aClfVucewQKCUC/q2RxOWuaa0f+T2UUVsLGycOHC/yyZzepSvnz5mCfvUhHJsAhRWaQGaGp8HipV9uiP4aGHHvKRzAXfyFXyHKrgQEiVOftSk3bdlpMTMzXs1wtsRk2U1ddK32/OnDk+kjU9XpqdCQ5U8kIv4nrj0At6qDQDrp9XSytjLdzPRU7pe+nNN9RKL1WS6edVT4rsRPrvIt7F8u8CkaUlA5pJDrVJt5bo6FhQZS8QLxLpNUrtA/SzquonVKoM0teod060qTJf/7eWcIVK/UFVzRWOE6RwvkZpglXjBFVehCqYaFUVknor6XNVd4Uq+PipCir99wpVcJJUidBwPxfBSb6MlmpmRJPYGgsFJzH1PXOS8NBFm0VILJ6LYPuVnFzUhzBITe0zuk84L+mXgWYlHM9FvF3SJ4AeffTRDO+T1WXWrFn+q/9LfYMz+prMLkpg630iHJSIzW4p6r4X9S+LlWAVZk4uSrwjuthXNkLWrl3r9r6guurVq/tI9va+0drHvW+m9jEr2jpacvP9V6xYYR/TC36/atWq2cdQ6PvtPYbSvja9nP58e1/cXOXKlUP63bOjLcL3vmBG7LGPtHA/Fzm1atUq24Jbl1CULVvWtq4P5bGL9N9FvIvl3wUiS89tTrby1zGQL18+nlvElUR6jcrpzypZjYMiLbc/794TSXvvzKtwvkatXr3a7dmzJ9ePfV6fu+DX53ScJHn5/zN7LjRuOuigg9xhhx3mI1k7+OCDXbly5dIe2z/++MPGrTnx66+/2sdYPBf777+//yx0S5cu9Z/9+/NI2W+/0E5xw/FcxJvgsSG5eayz+pply5b5z0KzY8cOO0bDQd9n165d/lpo0j8W0Rbuxx6RQTIsQooVK2YflZgJ1fr16+2jXpizk5fvH/za9IKxjRs32sdQZPX9gr9DTr9fKL97dooUKWJvgpF67CMt3M9FTul7bN682f3zzz8+krXdu3fb/SN93MbDc5NXsfy7QGTp2M7Jca37KoHNc4t4kkivUXl5PwnHe2VOBf/PnDy2wd8tHI9vOF+j8vLY6/vl9bnLzWOZ16/P6rnQ99NJvy6hUPJK/3fwe+nrlXjMifRfK9F8LnIj/eOW0WMYbqEmfcPxXMSbvD7WWX1N8HjJieLFi/vP8iY3/3c0jrXMhPuxR2SQDIsQ/cFqxmr69OlpbzrZ+eyzz+zjiSeeaB+zUrt2bUv4jBo1ykeyp++vF/iMvn8wFvwZsqNZk0mTJrlDDz00w5mwunXr2sdQv98PP/zgfvvtt5B+9+xoprpWrVpu1qxZbs2aNT6atZw89pEW7ucip/TcaUA3fvx4H8namDFjrNorlMcu0n8X8S6WfxeILD23er2ZPXu2j2QtmY5rJI9Eeo068sgjXalSpdyECRNCTkIEf6969erZx2gKPkahPraqUPnmm29cjRo1rOoor8L5GqWK8MMPP9xNnjzZbdmyxUezlv77HXfcce6AAw5wn3/+uSXcQpH+ucvpY6kxisYqhQsXdsccc0zYnws9tkqq6PcJxZdffmmPW/Dn0PcM/u2FqlmzZvYxFs/F77//7j8Ljc5XTj75ZH/NuSZNmvjPQpOb43/atGn+s6yF47nQJHxO5M+f338WGcFjQ3L6WCuJmNXrY06/3wknnBC2BI9e72vWrOmvhSb9YxFtOX2s9HfYqFEjfw1Rs/eFDxGinQD1EF977bU+kjk1f937AmwN8bX+PxTBHQfffPNNH8mctkHXfVu0aOEj/6b13NpyXGuxQ+kVcscdd9j3u/vuu33k37QFs76Xvmd2DTm1Pv+0006z7/fBBx/4aN4EG2JqF83s/Prrr9bzZO+L9b+aTsZKuJ+LnAo2ilVj4m0ZbLaQ3t4BhPX/ypcvX8gN8SP9dxHPYv13gcj5+OOP7bnaO/DKtqGzXmf2nsiH3PgbiJZEe43SToL6/7PaKTtoxowZ9jen3TJDaboebhs3brRd7rRznXZ2zE5wt0T1nQmHcL9GPfDAA/b9br75Zh/J3Pfff2/9tg499NC0nmVqrK2vD+7wmBX19tJ9tbGQ7NmzJ23soWbs2QnulnjNNdfY9XA/F+qxpJ9FDf03b97soxnT73/iiSfa90u/yVNwnB7KRU3SNXYNisVzoXFz8OfJ7nLZZZf5r/4fPUY5acLfvXt32wAso9syukT7udDPl9FtGV20WUFwR85QLjVr1rSNGzK6LaPLvud5+lvX30pG983ocuutt/qvzNiKFSty9FyEe4dE9VPO6P/J6KK/75UrV/qvjD5t2hI8vkK5dO7c2X8loolkWAQpkaCGpTrAlbBIvw1yenoT1eBM9wt1lx/58ccfrRmq3tSyerHRi7perHXRm2BmtJ2u3kD0BpnZzn0a/KqRuX5WDZS0q09m7rvvPrtfnTp1AkuXLvXRf1OC46KLLrL76QVcA5xwUEJJW0zr+2pbW13PiHZZqVatmt2vT58+Php74X4uckoDF33f008/PdMTIjUvDm5XfvXVV/to9iL9dxHvYvl3gcgK7nyqhq2Z/T0uW7YsbUe7bt26+SgQPxLpNWr9+vV2Uq33y8cff9xOPjIyefJkOwnV/YYPH+6j0ffqq6/aY6YNfjLb+U/jleCGRzoR3pFuF768CudrlBINwV3+7r//fhuTZEQTZcHEx3vvveej/0u8KqFywAEHBF577TUf/a9hw4bZybfGumr2HqQkmJJ1Smqlb86eno5LTY6qwbwm1VatWuVvCf9z0aVLF7ufdmrUxkIZ0cZEanyv++nvZ19K1um2rC46ht966y3/Ff8Ti+dCn4eyK6LGexlNNE+aNMmaq2f0Nekven3R86BzGT2PGd0n/eWKK66I+nOhcWzwe2V10UTD+PHj7fVTr68Z3Sf9pXjx4naeouM2OB7O6nL44YdnuImDJtZDSV7q716T3NnJyXMR7vcGfb/gRi9ZXfTzaQOuWNNGJCVKlMjwZ0x/Oe644yxJj+gjGRZh2s0k+AalN9wnnngi8MUXXwSmTp1qu3106NDBtl3VC2pudsv7/PPP0zL02gVQCR3tNKnLK6+8krZ9sqprQhkAaidDvYDoct5559mL/FdffWU7UD7zzDNpSQy9meoPPCsalOqFUPdXIk4ZbyV5pk+fHhg5cqTN5AbfSJU516A2nPSGUL16dfv+ShZpR5XRo0dbckkv5Er46I1ft8fDLpL7CudzkVOaLVMiTN9fb8baYl07OOm506ygBofBN1YNAHI6WI/030U8i/XfBSJHA5kGDRrYc1e6dGmr1tRzqudWz7EG6Hot1u3auj2zExYglhLtNUqTfOXKlbOfRwmLHj16BMaNG2fvl6qc11b8ei/Re8pLL73kvyp27r33XvtZlcjRSZ3GIxqXKKHz2GOPpZ30aodOJabCKdyvUT///LOdgOv+Gm+pAktjFL2Xa8yiiiONYfT4Z7Tzo6pxgmMJ7ean50dJEiUv+/fvn1Z5qKRJRtWHmigLjuM0FlHViKrb9X1feOGFwAknnGC3lSxZMsPq9XA+F0rYBHfaU0WKdkzUeEmPrcbfmvxT4k63ayJx69at/iv/n/72lNQNPgf7XlSxqecrI7F4LjSWO+WUU9J+vvQX/T9Kuma1M7mqNVXBldHX6znRYxisXhPt/B78Hfe96LVK43wds7F4LjQOVlVV8Hjc93LUUUfZ/x+kZLTOQ/Q4ZXR/7Q76008/+XsHAqtXr84y4aYdPlW1lRmdJ2SWgNNxceWVV+ZoBUaoz0Uk6Ps++OCDmSZTdc6nc4p4oera4Ovuvhc9/3qt3bBhg783oo1kWBRooKglYZm9QCqpkZeZSr3ABbd1zuiiNzDNLIRKLyC1atXK8HtpMKlBsqqCQjVgwIC0mah9L0rkaTASzpnP9PRmo8owzWJl9P9XrVo1LmYOMhPu5yIn9GajAVNmMxoaXGrJgAYMuRHpv4t4F8u/C0SOBuGamdcAPKPnVtWe/fr1o9oPcS+RXqN0oqhkhk7qMvp5lRQJZTldtKiqJliVvu9F1SNdu3aNWJVAuF+jVD2uE2klLzL6flqipYnIzCxYsCDLZWCa1M2qZYSSV0reZPS1wYRMVomscD4XGg8pCacqtIy+nyYXn3zyyWyXqaqaSRPaqrq/4IILAjfeeGPg/fffz/bvLVbPhRKQSpLrb1AJnkceeSTTart9aaz52Wef2aSrKrS0JFVjSyXaMqLHQMk4Jbj02Fx11VVWCKDXgPRi9VyomlaT2fo99Pvo9xoxYkSmiSGdw2lC+PLLL7ekiKoxlZjM7O9P1ZFaFqs2MLrob/mbb77xt2ZN31MTBSoA0KSz/k89BumTbjkR6nMRKaqY6927t/2/+v+1TFjndHqNi0d6D9KSWj3PeuyVbJ03b56/FbGST//sfVFAFGg75r1vQm7hwoW2+97eAYc75ZRT3N438VxtU7yvvW9ibu+LnG0jq6e1YsWKrkWLFu7oo4/29wjd3hdMN3PmTGvIqW2XDzroIFe1alV3xhlnuPLly/t7hU5b4ep7qQHp3jdr21lETRBbtmwZlZ0z1q1b59Q89ZdffnF//fWXbaPcuHFja1QYjsc+ksL9XOSUGvSrmb6a7mq3oRIlSrg6deq45s2b56qp6b4i/XcRz2L9d4HI0evM2LFjrcH43hMpa/x60kknuaZNm7qCBQv6ewHxLdFeo/Qeqff6xYsX23vXYYcdZn9zaoidL852iNt7sm6byUydOtXtPXl0RYsWddWrV3etWrVypUuX9veKnHC/Rul30GO/aNEia0heoUIFayCtZtz77Zf9fl16zvTzaAz7999/2xhW4wwdb6H47rvvbDMhbehQoEABV7lyZTtO9X2yE+7nYvv27W7via+N3davX+8OOeQQaySuMbma+EdarJ+LeBLr5wJAfCMZBgAAAAAAgJSR/fQAAAAAAAAAkCRIhgEAAAAAACBlkAwDAAAAAABAyiAZBgAAAAAAgJRBMgwAAAAAAAApg2QYAAAAAAAAUgbJMAAAAAAAAKQMkmEAAAAAAABIGSTDAAAAAAAAkDJIhgEAAAAAACBlkAwDAAAAAABAyiAZBgAAAAAAgJRBMgwAAAAAAAApg2QYAAAAAAAAUgbJMAAAAAAAAKQMkmEAAAAAAABIGSTDAAAAAAAAkDJIhgEAAAAAACBlkAwDAAAAAABAyiAZBgAAAAAAgJRBMgwAAAAAAAApg2QYAAAAAAAAUgbJMAAAAAAAAKQMkmEAAAAAAABIGSTDAAAAAAAAkDJIhgEAAAAAACBlkAwDAAAAAABAyiAZBgAAAAAAgJRBMgwAAAAAAAApg2QYAAAAAAAAUgbJMAAAAAAAAKQMkmEAAAAAAABIEc79H/I7p7wCrCGIAAAAAElFTkSuQmCC;" vertex="1" parent="1">
          <mxGeometry x="-310" y="40" width="681.01" height="200" as="geometry" />
        </mxCell>
        <mxCell id="3oxsGS8sbeUWXzwYM7qS-2" value="\(X\)" style="text;html=1;strokeColor=none;fillColor=none;align=center;verticalAlign=middle;whiteSpace=wrap;rounded=0;" vertex="1" parent="1">
          <mxGeometry x="-40" y="210" width="60" height="30" as="geometry" />
        </mxCell>
        <mxCell id="3oxsGS8sbeUWXzwYM7qS-3" value="\(X\)" style="text;html=1;strokeColor=none;fillColor=none;align=center;verticalAlign=middle;whiteSpace=wrap;rounded=0;" vertex="1" parent="1">
          <mxGeometry x="311.01" y="210" width="60" height="30" as="geometry" />
        </mxCell>
        <mxCell id="3oxsGS8sbeUWXzwYM7qS-4" value="\(P(Y|X)\)" style="text;html=1;strokeColor=none;fillColor=none;align=center;verticalAlign=middle;whiteSpace=wrap;rounded=0;" vertex="1" parent="1">
          <mxGeometry x="-350" y="50" width="60" height="30" as="geometry" />
        </mxCell>
        <mxCell id="3oxsGS8sbeUWXzwYM7qS-5" value="\(P(Y)&lt;br&gt;P(X|Y) \over P(X)\)" style="text;html=1;strokeColor=none;fillColor=none;align=center;verticalAlign=middle;whiteSpace=wrap;rounded=0;" vertex="1" parent="1">
          <mxGeometry x="-25" y="50" width="60" height="30" as="geometry" />
        </mxCell>
      </root>
    </mxGraphModel>
  </diagram>
</mxfile>
